{
  "version": "1.1.6",
  "modules": [
    {
      "id": 22,
      "plugin": "VCV-Recorder",
      "version": "1.0.1",
      "model": "Recorder",
      "params": [
        {
          "id": 0,
          "value": 0.987000167
        },
        {
          "id": 1,
          "value": 0.0
        }
      ],
      "leftModuleId": 60,
      "data": {
        "format": "wav",
        "path": "D:\\Documents\\GitHub\\gitshow11/recording.wav",
        "incrementPath": false,
        "sampleRate": 44100,
        "depth": 24,
        "bitRate": 320000
      },
      "pos": [
        149,
        0
      ]
    },
    {
      "id": 35,
      "plugin": "AudibleInstruments",
      "version": "1.0.0",
      "model": "Stages",
      "params": [
        {
          "id": 0,
          "value": 0.5
        },
        {
          "id": 1,
          "value": 0.5
        },
        {
          "id": 2,
          "value": 0.502999961
        },
        {
          "id": 3,
          "value": 0.239000022
        },
        {
          "id": 4,
          "value": 0.0275001172
        },
        {
          "id": 5,
          "value": 0.543499708
        },
        {
          "id": 6,
          "value": 0.0
        },
        {
          "id": 7,
          "value": 0.0
        },
        {
          "id": 8,
          "value": 0.0
        },
        {
          "id": 9,
          "value": 0.0
        },
        {
          "id": 10,
          "value": 0.0
        },
        {
          "id": 11,
          "value": 0.0
        },
        {
          "id": 12,
          "value": 0.577000022
        },
        {
          "id": 13,
          "value": 0.250999987
        },
        {
          "id": 14,
          "value": 0.572000206
        },
        {
          "id": 15,
          "value": 0.276000202
        },
        {
          "id": 16,
          "value": 0.386999995
        },
        {
          "id": 17,
          "value": 0.68599993
        }
      ],
      "leftModuleId": 48,
      "rightModuleId": 42,
      "data": {
        "configurations": [
          {
            "type": 0,
            "loop": false
          },
          {
            "type": 0,
            "loop": false
          },
          {
            "type": 0,
            "loop": false
          },
          {
            "type": 0,
            "loop": false
          },
          {
            "type": 0,
            "loop": false
          },
          {
            "type": 0,
            "loop": false
          }
        ]
      },
      "pos": [
        121,
        2
      ]
    },
    {
      "id": 37,
      "plugin": "cf",
      "version": "1.1.1",
      "model": "MONO",
      "params": [
        {
          "id": 0,
          "value": 0.0
        },
        {
          "id": 1,
          "value": 3.59500027
        },
        {
          "id": 2,
          "value": 0.0
        },
        {
          "id": 3,
          "value": 0.0
        }
      ],
      "leftModuleId": 64,
      "rightModuleId": 38,
      "data": {
        "solostate": 0,
        "onstate": 1
      },
      "pos": [
        109,
        3
      ]
    },
    {
      "id": 38,
      "plugin": "cf",
      "version": "1.1.1",
      "model": "MONO",
      "params": [
        {
          "id": 0,
          "value": 0.0
        },
        {
          "id": 1,
          "value": 3.48999906
        },
        {
          "id": 2,
          "value": 0.0
        },
        {
          "id": 3,
          "value": 0.0
        }
      ],
      "leftModuleId": 37,
      "rightModuleId": 39,
      "data": {
        "solostate": 0,
        "onstate": 1
      },
      "pos": [
        115,
        3
      ]
    },
    {
      "id": 39,
      "plugin": "cf",
      "version": "1.1.1",
      "model": "STEREO",
      "params": [
        {
          "id": 0,
          "value": 0.0
        },
        {
          "id": 1,
          "value": 0.0
        },
        {
          "id": 2,
          "value": 0.0
        },
        {
          "id": 3,
          "value": 0.0
        }
      ],
      "leftModuleId": 38,
      "rightModuleId": 40,
      "data": {
        "solostate": 0,
        "onstate": 1
      },
      "pos": [
        121,
        3
      ]
    },
    {
      "id": 40,
      "plugin": "cf",
      "version": "1.1.1",
      "model": "MASTER",
      "params": [
        {
          "id": 0,
          "value": 3.12000036
        },
        {
          "id": 1,
          "value": 0.0
        }
      ],
      "leftModuleId": 39,
      "rightModuleId": 75,
      "data": {
        "onstate": 1
      },
      "pos": [
        127,
        3
      ]
    },
    {
      "id": 42,
      "plugin": "cf",
      "version": "1.1.1",
      "model": "MASTER",
      "params": [
        {
          "id": 0,
          "value": 2.50500035
        },
        {
          "id": 1,
          "value": 0.0
        }
      ],
      "leftModuleId": 35,
      "data": {
        "onstate": 1
      },
      "pos": [
        135,
        2
      ]
    },
    {
      "id": 43,
      "plugin": "Fundamental",
      "version": "1.4.0",
      "model": "Scope",
      "params": [
        {
          "id": 0,
          "value": 0.0
        },
        {
          "id": 1,
          "value": 4.05000114
        },
        {
          "id": 2,
          "value": 0.0
        },
        {
          "id": 3,
          "value": -5.44000006
        },
        {
          "id": 4,
          "value": 15.2499981
        },
        {
          "id": 5,
          "value": 0.0
        },
        {
          "id": 6,
          "value": 4.17232513e-7
        },
        {
          "id": 7,
          "value": 0.0
        }
      ],
      "leftModuleId": 87,
      "rightModuleId": 60,
      "data": {
        "lissajous": 0,
        "external": 0
      },
      "pos": [
        126,
        0
      ]
    },
    {
      "id": 45,
      "plugin": "Bogaudio",
      "version": "1.1.26",
      "model": "Bogaudio-FMOp",
      "params": [
        {
          "id": 0,
          "value": 0.0450000204
        },
        {
          "id": 1,
          "value": 0.0
        },
        {
          "id": 2,
          "value": 0.141421005
        },
        {
          "id": 3,
          "value": 0.316229999
        },
        {
          "id": 4,
          "value": 1.0
        },
        {
          "id": 5,
          "value": 0.316229999
        },
        {
          "id": 6,
          "value": 0.0
        },
        {
          "id": 7,
          "value": 0.0
        },
        {
          "id": 8,
          "value": 1.0
        },
        {
          "id": 9,
          "value": 0.0
        },
        {
          "id": 10,
          "value": 0.0
        },
        {
          "id": 11,
          "value": 0.0
        }
      ],
      "leftModuleId": 100,
      "rightModuleId": 46,
      "data": {
        "linearLevel": false
      },
      "pos": [
        86,
        3
      ]
    },
    {
      "id": 46,
      "plugin": "Bogaudio",
      "version": "1.1.26",
      "model": "Bogaudio-FMOp",
      "params": [
        {
          "id": 0,
          "value": -0.252000093
        },
        {
          "id": 1,
          "value": 0.0
        },
        {
          "id": 2,
          "value": 0.184920996
        },
        {
          "id": 3,
          "value": 0.343230009
        },
        {
          "id": 4,
          "value": 0.99849999
        },
        {
          "id": 5,
          "value": 0.316229999
        },
        {
          "id": 6,
          "value": 0.0720000267
        },
        {
          "id": 7,
          "value": 0.0
        },
        {
          "id": 8,
          "value": 0.401500106
        },
        {
          "id": 9,
          "value": 0.0
        },
        {
          "id": 10,
          "value": 0.0
        },
        {
          "id": 11,
          "value": 0.0
        }
      ],
      "leftModuleId": 45,
      "rightModuleId": 64,
      "data": {
        "linearLevel": false
      },
      "pos": [
        96,
        3
      ]
    },
    {
      "id": 47,
      "plugin": "StellareModular",
      "version": "1.0.0",
      "model": "TuringMachine",
      "params": [
        {
          "id": 0,
          "value": 0.236000001
        },
        {
          "id": 1,
          "value": 0.562999964
        },
        {
          "id": 2,
          "value": 0.187999949
        },
        {
          "id": 3,
          "value": 0.0469999798
        },
        {
          "id": 4,
          "value": 0.0274998881
        },
        {
          "id": 5,
          "value": -1.0
        },
        {
          "id": 6,
          "value": 4.0
        },
        {
          "id": 7,
          "value": 0.386999965
        },
        {
          "id": 8,
          "value": 0.0
        },
        {
          "id": 9,
          "value": 0.0
        },
        {
          "id": 10,
          "value": 0.0
        },
        {
          "id": 11,
          "value": 0.0
        },
        {
          "id": 12,
          "value": 0.0
        }
      ],
      "leftModuleId": 68,
      "rightModuleId": 50,
      "data": {
        "pulses_mode": 0
      },
      "pos": [
        94,
        2
      ]
    },
    {
      "id": 48,
      "plugin": "Bogaudio",
      "version": "1.1.26",
      "model": "Bogaudio-Mult",
      "params": [],
      "leftModuleId": 55,
      "rightModuleId": 35,
      "pos": [
        118,
        2
      ]
    },
    {
      "id": 50,
      "plugin": "Bogaudio",
      "version": "1.1.26",
      "model": "Bogaudio-Mult",
      "params": [],
      "leftModuleId": 47,
      "rightModuleId": 55,
      "pos": [
        112,
        2
      ]
    },
    {
      "id": 55,
      "plugin": "Bogaudio",
      "version": "1.1.26",
      "model": "Bogaudio-Noise",
      "params": [],
      "leftModuleId": 50,
      "rightModuleId": 48,
      "data": {
        "noise_channels": 1
      },
      "pos": [
        115,
        2
      ]
    },
    {
      "id": 60,
      "plugin": "Core",
      "version": "1.1.6",
      "model": "AudioInterface",
      "params": [],
      "leftModuleId": 43,
      "rightModuleId": 22,
      "data": {
        "audio": {
          "driver": 6,
          "deviceName": "扬声器 (Razer Surround Audio Controller)",
          "offset": 0,
          "maxChannels": 8,
          "sampleRate": 44100,
          "blockSize": 256
        }
      },
      "pos": [
        139,
        0
      ]
    },
    {
      "id": 64,
      "plugin": "Fundamental",
      "version": "1.4.0",
      "model": "VCA-1",
      "params": [
        {
          "id": 0,
          "value": 1.0
        },
        {
          "id": 1,
          "value": 1.0
        }
      ],
      "leftModuleId": 46,
      "rightModuleId": 37,
      "pos": [
        106,
        3
      ]
    },
    {
      "id": 67,
      "plugin": "Fundamental",
      "version": "1.4.0",
      "model": "VCO",
      "params": [
        {
          "id": 0,
          "value": 0.0
        },
        {
          "id": 1,
          "value": 0.0
        },
        {
          "id": 2,
          "value": -22.7339993
        },
        {
          "id": 3,
          "value": 0.306000024
        },
        {
          "id": 4,
          "value": 0.359999895
        },
        {
          "id": 5,
          "value": 0.5
        },
        {
          "id": 6,
          "value": 0.439500034
        }
      ],
      "rightModuleId": 69,
      "pos": [
        66,
        2
      ]
    },
    {
      "id": 68,
      "plugin": "Fundamental",
      "version": "1.4.0",
      "model": "VCF",
      "params": [
        {
          "id": 0,
          "value": 1.0
        },
        {
          "id": 1,
          "value": 1.0
        },
        {
          "id": 2,
          "value": 0.361500025
        },
        {
          "id": 3,
          "value": 0.0279999692
        },
        {
          "id": 4,
          "value": 0.42749998
        }
      ],
      "leftModuleId": 69,
      "rightModuleId": 47,
      "pos": [
        86,
        2
      ]
    },
    {
      "id": 69,
      "plugin": "Fundamental",
      "version": "1.4.0",
      "model": "VCO",
      "params": [
        {
          "id": 0,
          "value": 1.0
        },
        {
          "id": 1,
          "value": 0.0
        },
        {
          "id": 2,
          "value": -14.3099976
        },
        {
          "id": 3,
          "value": -1.0
        },
        {
          "id": 4,
          "value": 0.630000055
        },
        {
          "id": 5,
          "value": 0.845450282
        },
        {
          "id": 6,
          "value": 0.980999827
        }
      ],
      "leftModuleId": 67,
      "rightModuleId": 68,
      "pos": [
        76,
        2
      ]
    },
    {
      "id": 73,
      "plugin": "Fundamental",
      "version": "1.4.0",
      "model": "SEQ3",
      "params": [
        {
          "id": 0,
          "value": 1.98800242
        },
        {
          "id": 1,
          "value": 0.0
        },
        {
          "id": 2,
          "value": 0.0
        },
        {
          "id": 3,
          "value": 8.0
        },
        {
          "id": 4,
          "value": 3.14500165
        },
        {
          "id": 5,
          "value": 0.0
        },
        {
          "id": 6,
          "value": 1.30500019
        },
        {
          "id": 7,
          "value": 2.06999993
        },
        {
          "id": 8,
          "value": 0.0
        },
        {
          "id": 9,
          "value": 3.04500055
        },
        {
          "id": 10,
          "value": 4.11000013
        },
        {
          "id": 11,
          "value": 0.0
        },
        {
          "id": 12,
          "value": 0.0
        },
        {
          "id": 13,
          "value": 0.0
        },
        {
          "id": 14,
          "value": 0.0
        },
        {
          "id": 15,
          "value": 0.0
        },
        {
          "id": 16,
          "value": 0.0
        },
        {
          "id": 17,
          "value": 0.0
        },
        {
          "id": 18,
          "value": 0.0
        },
        {
          "id": 19,
          "value": 0.0
        },
        {
          "id": 20,
          "value": 0.0
        },
        {
          "id": 21,
          "value": 0.0
        },
        {
          "id": 22,
          "value": 0.0
        },
        {
          "id": 23,
          "value": 0.0
        },
        {
          "id": 24,
          "value": 0.0
        },
        {
          "id": 25,
          "value": 0.0
        },
        {
          "id": 26,
          "value": 0.0
        },
        {
          "id": 27,
          "value": 0.0
        },
        {
          "id": 28,
          "value": 0.0
        },
        {
          "id": 29,
          "value": 0.0
        },
        {
          "id": 30,
          "value": 0.0
        },
        {
          "id": 31,
          "value": 0.0
        },
        {
          "id": 32,
          "value": 0.0
        },
        {
          "id": 33,
          "value": 0.0
        },
        {
          "id": 34,
          "value": 0.0
        },
        {
          "id": 35,
          "value": 0.0
        }
      ],
      "rightModuleId": 82,
      "data": {
        "running": true,
        "gates": [
          1,
          0,
          1,
          1,
          1,
          0,
          1,
          0
        ]
      },
      "pos": [
        0,
        1
      ]
    },
    {
      "id": 75,
      "plugin": "Befaco",
      "version": "1.0.0",
      "model": "SpringReverb",
      "params": [
        {
          "id": 0,
          "value": 0.482499957
        },
        {
          "id": 1,
          "value": 0.867000222
        },
        {
          "id": 2,
          "value": 0.0
        },
        {
          "id": 3,
          "value": 0.427500755
        }
      ],
      "leftModuleId": 40,
      "pos": [
        133,
        3
      ]
    },
    {
      "id": 76,
      "plugin": "Fundamental",
      "version": "1.4.0",
      "model": "ADSR",
      "params": [
        {
          "id": 0,
          "value": 0.0
        },
        {
          "id": 1,
          "value": 0.370999873
        },
        {
          "id": 2,
          "value": 0.665000021
        },
        {
          "id": 3,
          "value": 0.535999656
        }
      ],
      "leftModuleId": 84,
      "rightModuleId": 85,
      "pos": [
        66,
        1
      ]
    },
    {
      "id": 77,
      "plugin": "Fundamental",
      "version": "1.4.0",
      "model": "VCA",
      "params": [
        {
          "id": 0,
          "value": 0.527499914
        },
        {
          "id": 1,
          "value": 0.273000032
        }
      ],
      "leftModuleId": 80,
      "rightModuleId": 78,
      "pos": [
        103,
        0
      ]
    },
    {
      "id": 78,
      "plugin": "Fundamental",
      "version": "1.4.0",
      "model": "VCF",
      "params": [
        {
          "id": 0,
          "value": 1.0
        },
        {
          "id": 1,
          "value": 0.5
        },
        {
          "id": 2,
          "value": 0.0
        },
        {
          "id": 3,
          "value": 0.0
        },
        {
          "id": 4,
          "value": 0.0
        }
      ],
      "leftModuleId": 77,
      "rightModuleId": 87,
      "pos": [
        108,
        0
      ]
    },
    {
      "id": 80,
      "plugin": "AudibleInstruments",
      "version": "1.0.0",
      "model": "Elements",
      "params": [
        {
          "id": 0,
          "value": 1.0
        },
        {
          "id": 1,
          "value": 0.0
        },
        {
          "id": 2,
          "value": 0.0
        },
        {
          "id": 3,
          "value": 0.5
        },
        {
          "id": 4,
          "value": 0.0
        },
        {
          "id": 5,
          "value": 0.0
        },
        {
          "id": 6,
          "value": 0.0
        },
        {
          "id": 7,
          "value": 0.507999897
        },
        {
          "id": 8,
          "value": 0.488500059
        },
        {
          "id": 9,
          "value": 0.406500161
        },
        {
          "id": 10,
          "value": 0.181499898
        },
        {
          "id": 11,
          "value": 0.5
        },
        {
          "id": 12,
          "value": 0.5
        },
        {
          "id": 13,
          "value": 0.5
        },
        {
          "id": 14,
          "value": 0.635499954
        },
        {
          "id": 15,
          "value": 0.500000119
        },
        {
          "id": 16,
          "value": 1.49899936
        },
        {
          "id": 17,
          "value": 0.0
        },
        {
          "id": 18,
          "value": 0.0
        },
        {
          "id": 19,
          "value": 0.0
        },
        {
          "id": 20,
          "value": -0.0280000381
        },
        {
          "id": 21,
          "value": 0.0
        },
        {
          "id": 22,
          "value": -0.00700007798
        },
        {
          "id": 23,
          "value": 0.351000279
        },
        {
          "id": 24,
          "value": 0.0150000881
        },
        {
          "id": 25,
          "value": 0.243999884
        },
        {
          "id": 26,
          "value": -0.066000253
        },
        {
          "id": 27,
          "value": 0.0
        }
      ],
      "leftModuleId": 101,
      "rightModuleId": 77,
      "data": {
        "model": 0
      },
      "pos": [
        69,
        0
      ]
    },
    {
      "id": 82,
      "plugin": "Fundamental",
      "version": "1.4.0",
      "model": "SEQ3",
      "params": [
        {
          "id": 0,
          "value": 2.07200336
        },
        {
          "id": 1,
          "value": 0.0
        },
        {
          "id": 2,
          "value": 0.0
        },
        {
          "id": 3,
          "value": 7.0
        },
        {
          "id": 4,
          "value": 3.14500165
        },
        {
          "id": 5,
          "value": 6.73500156
        },
        {
          "id": 6,
          "value": 1.30500019
        },
        {
          "id": 7,
          "value": 2.06999993
        },
        {
          "id": 8,
          "value": 0.0
        },
        {
          "id": 9,
          "value": 6.8550005
        },
        {
          "id": 10,
          "value": 0.990000248
        },
        {
          "id": 11,
          "value": 0.0
        },
        {
          "id": 12,
          "value": 0.0
        },
        {
          "id": 13,
          "value": 0.0
        },
        {
          "id": 14,
          "value": 0.0
        },
        {
          "id": 15,
          "value": 0.0
        },
        {
          "id": 16,
          "value": 0.0
        },
        {
          "id": 17,
          "value": 0.0
        },
        {
          "id": 18,
          "value": 0.0
        },
        {
          "id": 19,
          "value": 0.0
        },
        {
          "id": 20,
          "value": 0.0
        },
        {
          "id": 21,
          "value": 0.0
        },
        {
          "id": 22,
          "value": 0.0
        },
        {
          "id": 23,
          "value": 0.0
        },
        {
          "id": 24,
          "value": 0.0
        },
        {
          "id": 25,
          "value": 0.0
        },
        {
          "id": 26,
          "value": 0.0
        },
        {
          "id": 27,
          "value": 0.0
        },
        {
          "id": 28,
          "value": 0.0
        },
        {
          "id": 29,
          "value": 0.0
        },
        {
          "id": 30,
          "value": 0.0
        },
        {
          "id": 31,
          "value": 0.0
        },
        {
          "id": 32,
          "value": 0.0
        },
        {
          "id": 33,
          "value": 0.0
        },
        {
          "id": 34,
          "value": 0.0
        },
        {
          "id": 35,
          "value": 0.0
        }
      ],
      "leftModuleId": 73,
      "rightModuleId": 84,
      "data": {
        "running": true,
        "gates": [
          1,
          0,
          1,
          0,
          1,
          0,
          1,
          0
        ]
      },
      "pos": [
        22,
        1
      ]
    },
    {
      "id": 84,
      "plugin": "Fundamental",
      "version": "1.4.0",
      "model": "SEQ3",
      "params": [
        {
          "id": 0,
          "value": 2.01200438
        },
        {
          "id": 1,
          "value": 0.0
        },
        {
          "id": 2,
          "value": 0.0
        },
        {
          "id": 3,
          "value": 6.0
        },
        {
          "id": 4,
          "value": 3.14500165
        },
        {
          "id": 5,
          "value": 0.0
        },
        {
          "id": 6,
          "value": 1.30500019
        },
        {
          "id": 7,
          "value": 2.06999993
        },
        {
          "id": 8,
          "value": 3.25499868
        },
        {
          "id": 9,
          "value": 0.0
        },
        {
          "id": 10,
          "value": 0.764999628
        },
        {
          "id": 11,
          "value": 0.0
        },
        {
          "id": 12,
          "value": 0.0
        },
        {
          "id": 13,
          "value": 0.0
        },
        {
          "id": 14,
          "value": 0.0
        },
        {
          "id": 15,
          "value": 0.0
        },
        {
          "id": 16,
          "value": 0.0
        },
        {
          "id": 17,
          "value": 0.0
        },
        {
          "id": 18,
          "value": 0.0
        },
        {
          "id": 19,
          "value": 0.0
        },
        {
          "id": 20,
          "value": 0.0
        },
        {
          "id": 21,
          "value": 0.0
        },
        {
          "id": 22,
          "value": 0.0
        },
        {
          "id": 23,
          "value": 0.0
        },
        {
          "id": 24,
          "value": 0.0
        },
        {
          "id": 25,
          "value": 0.0
        },
        {
          "id": 26,
          "value": 0.0
        },
        {
          "id": 27,
          "value": 0.0
        },
        {
          "id": 28,
          "value": 0.0
        },
        {
          "id": 29,
          "value": 0.0
        },
        {
          "id": 30,
          "value": 0.0
        },
        {
          "id": 31,
          "value": 0.0
        },
        {
          "id": 32,
          "value": 0.0
        },
        {
          "id": 33,
          "value": 0.0
        },
        {
          "id": 34,
          "value": 0.0
        },
        {
          "id": 35,
          "value": 0.0
        }
      ],
      "leftModuleId": 82,
      "rightModuleId": 76,
      "data": {
        "running": true,
        "gates": [
          0,
          1,
          0,
          1,
          0,
          1,
          0,
          1
        ]
      },
      "pos": [
        44,
        1
      ]
    },
    {
      "id": 85,
      "plugin": "Fundamental",
      "version": "1.4.0",
      "model": "ADSR",
      "params": [
        {
          "id": 0,
          "value": 0.0
        },
        {
          "id": 1,
          "value": 0.370999873
        },
        {
          "id": 2,
          "value": 0.665000021
        },
        {
          "id": 3,
          "value": 0.535999656
        }
      ],
      "leftModuleId": 76,
      "rightModuleId": 86,
      "pos": [
        74,
        1
      ]
    },
    {
      "id": 86,
      "plugin": "Fundamental",
      "version": "1.4.0",
      "model": "ADSR",
      "params": [
        {
          "id": 0,
          "value": 0.0
        },
        {
          "id": 1,
          "value": 0.370999873
        },
        {
          "id": 2,
          "value": 0.665000021
        },
        {
          "id": 3,
          "value": 0.535999656
        }
      ],
      "leftModuleId": 85,
      "rightModuleId": 90,
      "pos": [
        82,
        1
      ]
    },
    {
      "id": 87,
      "plugin": "Fundamental",
      "version": "1.4.0",
      "model": "VCMixer",
      "params": [
        {
          "id": 0,
          "value": 0.125999957
        },
        {
          "id": 1,
          "value": 0.84004277
        },
        {
          "id": 2,
          "value": 0.917824686
        },
        {
          "id": 3,
          "value": 0.661852002
        },
        {
          "id": 4,
          "value": 0.722663105
        }
      ],
      "leftModuleId": 78,
      "rightModuleId": 43,
      "pos": [
        116,
        0
      ]
    },
    {
      "id": 90,
      "plugin": "AudibleInstruments",
      "version": "1.0.0",
      "model": "Links",
      "params": [],
      "leftModuleId": 86,
      "rightModuleId": 91,
      "pos": [
        90,
        1
      ]
    },
    {
      "id": 91,
      "plugin": "AudibleInstruments",
      "version": "1.0.0",
      "model": "Rings",
      "params": [
        {
          "id": 0,
          "value": 0.0
        },
        {
          "id": 1,
          "value": 0.0
        },
        {
          "id": 2,
          "value": 10.9800034
        },
        {
          "id": 3,
          "value": 0.780499756
        },
        {
          "id": 4,
          "value": 0.5
        },
        {
          "id": 5,
          "value": 0.5
        },
        {
          "id": 6,
          "value": 0.5
        },
        {
          "id": 7,
          "value": 0.0
        },
        {
          "id": 8,
          "value": 0.0
        },
        {
          "id": 9,
          "value": 0.0
        },
        {
          "id": 10,
          "value": 0.0
        },
        {
          "id": 11,
          "value": 0.0
        }
      ],
      "leftModuleId": 90,
      "rightModuleId": 94,
      "data": {
        "polyphony": 0,
        "model": 0,
        "easterEgg": false
      },
      "pos": [
        94,
        1
      ]
    },
    {
      "id": 94,
      "plugin": "Fundamental",
      "version": "1.4.0",
      "model": "VCF",
      "params": [
        {
          "id": 0,
          "value": 0.959500194
        },
        {
          "id": 1,
          "value": 0.5
        },
        {
          "id": 2,
          "value": 0.0
        },
        {
          "id": 3,
          "value": 0.0
        },
        {
          "id": 4,
          "value": 0.0
        }
      ],
      "leftModuleId": 91,
      "rightModuleId": 102,
      "pos": [
        108,
        1
      ]
    },
    {
      "id": 100,
      "plugin": "AudibleInstruments",
      "version": "1.0.0",
      "model": "Elements",
      "params": [
        {
          "id": 0,
          "value": 1.0
        },
        {
          "id": 1,
          "value": 0.0
        },
        {
          "id": 2,
          "value": 0.0
        },
        {
          "id": 3,
          "value": 0.5
        },
        {
          "id": 4,
          "value": 0.0
        },
        {
          "id": 5,
          "value": 0.0
        },
        {
          "id": 6,
          "value": 0.0
        },
        {
          "id": 7,
          "value": 0.507999897
        },
        {
          "id": 8,
          "value": 0.488500059
        },
        {
          "id": 9,
          "value": 0.406500161
        },
        {
          "id": 10,
          "value": 0.181499898
        },
        {
          "id": 11,
          "value": 0.5
        },
        {
          "id": 12,
          "value": 0.5
        },
        {
          "id": 13,
          "value": 0.5
        },
        {
          "id": 14,
          "value": 0.635499954
        },
        {
          "id": 15,
          "value": 0.500000119
        },
        {
          "id": 16,
          "value": 1.49899936
        },
        {
          "id": 17,
          "value": 0.0
        },
        {
          "id": 18,
          "value": 0.0
        },
        {
          "id": 19,
          "value": 0.0
        },
        {
          "id": 20,
          "value": -0.0280000381
        },
        {
          "id": 21,
          "value": 0.0
        },
        {
          "id": 22,
          "value": -0.00700007798
        },
        {
          "id": 23,
          "value": 0.351000279
        },
        {
          "id": 24,
          "value": 0.0150000881
        },
        {
          "id": 25,
          "value": 0.243999884
        },
        {
          "id": 26,
          "value": -0.066000253
        },
        {
          "id": 27,
          "value": 0.0
        }
      ],
      "rightModuleId": 45,
      "data": {
        "model": 0
      },
      "pos": [
        52,
        3
      ]
    },
    {
      "id": 101,
      "plugin": "Fundamental",
      "version": "1.4.0",
      "model": "VCO",
      "params": [
        {
          "id": 0,
          "value": 0.0
        },
        {
          "id": 1,
          "value": 0.0
        },
        {
          "id": 2,
          "value": 17.6040058
        },
        {
          "id": 3,
          "value": 0.306000024
        },
        {
          "id": 4,
          "value": 0.359999895
        },
        {
          "id": 5,
          "value": 0.5
        },
        {
          "id": 6,
          "value": 0.439500034
        }
      ],
      "rightModuleId": 80,
      "pos": [
        59,
        0
      ]
    },
    {
      "id": 102,
      "plugin": "Fundamental",
      "version": "1.4.0",
      "model": "VCO",
      "params": [
        {
          "id": 0,
          "value": 0.0
        },
        {
          "id": 1,
          "value": 0.0
        },
        {
          "id": 2,
          "value": -22.7340183
        },
        {
          "id": 3,
          "value": 0.306000024
        },
        {
          "id": 4,
          "value": 0.359999895
        },
        {
          "id": 5,
          "value": 0.5
        },
        {
          "id": 6,
          "value": 0.439500034
        }
      ],
      "leftModuleId": 94,
      "pos": [
        116,
        1
      ]
    },
    {
      "id": 103,
      "plugin": "Befaco",
      "version": "1.0.0",
      "model": "SpringReverb",
      "params": [
        {
          "id": 0,
          "value": 0.519000053
        },
        {
          "id": 1,
          "value": 1.0
        },
        {
          "id": 2,
          "value": 0.0
        },
        {
          "id": 3,
          "value": 0.427500755
        }
      ],
      "pos": [
        128,
        1
      ]
    }
  ],
  "cables": [
    {
      "id": 393,
      "outputModuleId": 37,
      "outputId": 1,
      "inputModuleId": 38,
      "inputId": 5,
      "color": "#c9b70e"
    },
    {
      "id": 394,
      "outputModuleId": 37,
      "outputId": 2,
      "inputModuleId": 38,
      "inputId": 6,
      "color": "#0c8e15"
    },
    {
      "id": 395,
      "outputModuleId": 38,
      "outputId": 1,
      "inputModuleId": 39,
      "inputId": 5,
      "color": "#c91847"
    },
    {
      "id": 396,
      "outputModuleId": 38,
      "outputId": 2,
      "inputModuleId": 39,
      "inputId": 6,
      "color": "#0986ad"
    },
    {
      "id": 397,
      "outputModuleId": 39,
      "outputId": 1,
      "inputModuleId": 40,
      "inputId": 2,
      "color": "#c9b70e"
    },
    {
      "id": 398,
      "outputModuleId": 39,
      "outputId": 2,
      "inputModuleId": 40,
      "inputId": 3,
      "color": "#0c8e15"
    },
    {
      "id": 409,
      "outputModuleId": 48,
      "outputId": 0,
      "inputModuleId": 35,
      "inputId": 11,
      "color": "#0986ad"
    },
    {
      "id": 419,
      "outputModuleId": 48,
      "outputId": 1,
      "inputModuleId": 35,
      "inputId": 10,
      "color": "#c91847"
    },
    {
      "id": 418,
      "outputModuleId": 35,
      "outputId": 4,
      "inputModuleId": 46,
      "inputId": 2,
      "color": "#0c8e15"
    },
    {
      "id": 426,
      "outputModuleId": 55,
      "outputId": 4,
      "inputModuleId": 46,
      "inputId": 4,
      "color": "#0c8e15"
    },
    {
      "id": 422,
      "outputModuleId": 46,
      "outputId": 0,
      "inputModuleId": 39,
      "inputId": 9,
      "color": "#0c8e15"
    },
    {
      "id": 439,
      "outputModuleId": 48,
      "outputId": 2,
      "inputModuleId": 35,
      "inputId": 9,
      "color": "#c9b70e"
    },
    {
      "id": 442,
      "outputModuleId": 48,
      "outputId": 3,
      "inputModuleId": 35,
      "inputId": 8,
      "color": "#0986ad"
    },
    {
      "id": 445,
      "outputModuleId": 64,
      "outputId": 0,
      "inputModuleId": 37,
      "inputId": 8,
      "color": "#0986ad"
    },
    {
      "id": 441,
      "outputModuleId": 35,
      "outputId": 2,
      "inputModuleId": 64,
      "inputId": 0,
      "color": "#c91847"
    },
    {
      "id": 446,
      "outputModuleId": 50,
      "outputId": 1,
      "inputModuleId": 55,
      "inputId": 0,
      "color": "#0c8e15"
    },
    {
      "id": 450,
      "outputModuleId": 35,
      "outputId": 0,
      "inputModuleId": 35,
      "inputId": 1,
      "color": "#c91847"
    },
    {
      "id": 452,
      "outputModuleId": 48,
      "outputId": 4,
      "inputModuleId": 35,
      "inputId": 7,
      "color": "#c9b70e"
    },
    {
      "id": 453,
      "outputModuleId": 47,
      "outputId": 0,
      "inputModuleId": 35,
      "inputId": 6,
      "color": "#0986ad"
    },
    {
      "id": 455,
      "outputModuleId": 47,
      "outputId": 6,
      "inputModuleId": 35,
      "inputId": 4,
      "color": "#0c8e15"
    },
    {
      "id": 454,
      "outputModuleId": 47,
      "outputId": 9,
      "inputModuleId": 35,
      "inputId": 3,
      "color": "#c9b70e"
    },
    {
      "id": 437,
      "outputModuleId": 68,
      "outputId": 0,
      "inputModuleId": 38,
      "inputId": 8,
      "color": "#c91847"
    },
    {
      "id": 438,
      "outputModuleId": 35,
      "outputId": 3,
      "inputModuleId": 68,
      "inputId": 2,
      "color": "#0986ad"
    },
    {
      "id": 451,
      "outputModuleId": 35,
      "outputId": 1,
      "inputModuleId": 69,
      "inputId": 3,
      "color": "#0986ad"
    },
    {
      "id": 444,
      "outputModuleId": 69,
      "outputId": 3,
      "inputModuleId": 64,
      "inputId": 1,
      "color": "#c91847"
    },
    {
      "id": 457,
      "outputModuleId": 67,
      "outputId": 0,
      "inputModuleId": 35,
      "inputId": 2,
      "color": "#0986ad"
    },
    {
      "id": 456,
      "outputModuleId": 67,
      "outputId": 2,
      "inputModuleId": 35,
      "inputId": 5,
      "color": "#c91847"
    },
    {
      "id": 421,
      "outputModuleId": 45,
      "outputId": 0,
      "inputModuleId": 39,
      "inputId": 8,
      "color": "#c9b70e"
    },
    {
      "id": 413,
      "outputModuleId": 50,
      "outputId": 0,
      "inputModuleId": 45,
      "inputId": 4,
      "color": "#0986ad"
    },
    {
      "id": 420,
      "outputModuleId": 35,
      "outputId": 5,
      "inputModuleId": 45,
      "inputId": 2,
      "color": "#0986ad"
    },
    {
      "id": 411,
      "outputModuleId": 47,
      "outputId": 14,
      "inputModuleId": 50,
      "inputId": 0,
      "color": "#0c8e15"
    },
    {
      "id": 408,
      "outputModuleId": 73,
      "outputId": 0,
      "inputModuleId": 48,
      "inputId": 0,
      "color": "#c91847"
    },
    {
      "id": 434,
      "outputModuleId": 47,
      "outputId": 12,
      "inputModuleId": 68,
      "inputId": 3,
      "color": "#0986ad"
    },
    {
      "id": 468,
      "outputModuleId": 73,
      "outputId": 0,
      "inputModuleId": 76,
      "inputId": 4,
      "color": "#0986ad"
    },
    {
      "id": 410,
      "outputModuleId": 73,
      "outputId": 6,
      "inputModuleId": 47,
      "inputId": 0,
      "color": "#c9b70e"
    },
    {
      "id": 458,
      "outputModuleId": 73,
      "outputId": 4,
      "inputModuleId": 35,
      "inputId": 0,
      "color": "#c91847"
    },
    {
      "id": 464,
      "outputModuleId": 73,
      "outputId": 1,
      "inputModuleId": 47,
      "inputId": 1,
      "color": "#c91847"
    },
    {
      "id": 503,
      "outputModuleId": 76,
      "outputId": 0,
      "inputModuleId": 77,
      "inputId": 1,
      "color": "#c9b70e"
    },
    {
      "id": 496,
      "outputModuleId": 77,
      "outputId": 0,
      "inputModuleId": 78,
      "inputId": 3,
      "color": "#0c8e15"
    },
    {
      "id": 509,
      "outputModuleId": 82,
      "outputId": 0,
      "inputModuleId": 85,
      "inputId": 4,
      "color": "#0986ad"
    },
    {
      "id": 510,
      "outputModuleId": 84,
      "outputId": 0,
      "inputModuleId": 86,
      "inputId": 4,
      "color": "#c9b70e"
    },
    {
      "id": 512,
      "outputModuleId": 86,
      "outputId": 0,
      "inputModuleId": 90,
      "inputId": 2,
      "color": "#c91847"
    },
    {
      "id": 511,
      "outputModuleId": 85,
      "outputId": 0,
      "inputModuleId": 90,
      "inputId": 1,
      "color": "#0c8e15"
    },
    {
      "id": 399,
      "outputModuleId": 40,
      "outputId": 2,
      "inputModuleId": 75,
      "inputId": 2,
      "color": "#c91847"
    },
    {
      "id": 400,
      "outputModuleId": 40,
      "outputId": 3,
      "inputModuleId": 75,
      "inputId": 3,
      "color": "#0986ad"
    },
    {
      "id": 467,
      "outputModuleId": 69,
      "outputId": 0,
      "inputModuleId": 75,
      "inputId": 0,
      "color": "#0c8e15"
    },
    {
      "id": 554,
      "outputModuleId": 87,
      "outputId": 0,
      "inputModuleId": 60,
      "inputId": 0,
      "color": "#c9b70e"
    },
    {
      "id": 585,
      "outputModuleId": 77,
      "outputId": 1,
      "inputModuleId": 94,
      "inputId": 3,
      "color": "#c91847"
    },
    {
      "id": 586,
      "outputModuleId": 76,
      "outputId": 0,
      "inputModuleId": 77,
      "inputId": 4,
      "color": "#0986ad"
    },
    {
      "id": 589,
      "outputModuleId": 60,
      "outputId": 0,
      "inputModuleId": 22,
      "inputId": 2,
      "color": "#c91847"
    },
    {
      "id": 590,
      "outputModuleId": 60,
      "outputId": 1,
      "inputModuleId": 22,
      "inputId": 3,
      "color": "#0986ad"
    },
    {
      "id": 594,
      "outputModuleId": 87,
      "outputId": 0,
      "inputModuleId": 60,
      "inputId": 1,
      "color": "#0986ad"
    },
    {
      "id": 598,
      "outputModuleId": 75,
      "outputId": 1,
      "inputModuleId": 42,
      "inputId": 3,
      "color": "#0986ad"
    },
    {
      "id": 443,
      "outputModuleId": 50,
      "outputId": 2,
      "inputModuleId": 69,
      "inputId": 0,
      "color": "#0c8e15"
    },
    {
      "id": 498,
      "outputModuleId": 101,
      "outputId": 2,
      "inputModuleId": 77,
      "inputId": 2,
      "color": "#0986ad"
    },
    {
      "id": 505,
      "outputModuleId": 84,
      "outputId": 1,
      "inputModuleId": 101,
      "inputId": 1,
      "color": "#c91847"
    },
    {
      "id": 504,
      "outputModuleId": 82,
      "outputId": 1,
      "inputModuleId": 101,
      "inputId": 2,
      "color": "#0c8e15"
    },
    {
      "id": 577,
      "outputModuleId": 73,
      "outputId": 1,
      "inputModuleId": 101,
      "inputId": 3,
      "color": "#c9b70e"
    },
    {
      "id": 599,
      "outputModuleId": 102,
      "outputId": 3,
      "inputModuleId": 77,
      "inputId": 5,
      "color": "#c91847"
    },
    {
      "id": 581,
      "outputModuleId": 90,
      "outputId": 4,
      "inputModuleId": 102,
      "inputId": 2,
      "color": "#c9b70e"
    },
    {
      "id": 601,
      "outputModuleId": 101,
      "outputId": 3,
      "inputModuleId": 102,
      "inputId": 1,
      "color": "#c9b70e"
    },
    {
      "id": 561,
      "outputModuleId": 94,
      "outputId": 0,
      "inputModuleId": 103,
      "inputId": 3,
      "color": "#c9b70e"
    },
    {
      "id": 602,
      "outputModuleId": 103,
      "outputId": 1,
      "inputModuleId": 87,
      "inputId": 1,
      "color": "#0c8e15"
    },
    {
      "id": 596,
      "outputModuleId": 78,
      "outputId": 0,
      "inputModuleId": 103,
      "inputId": 2,
      "color": "#0c8e15"
    },
    {
      "id": 448,
      "outputModuleId": 42,
      "outputId": 3,
      "inputModuleId": 87,
      "inputId": 2,
      "color": "#0986ad"
    }
  ]
}