{
  "version": "1.1.6",
  "modules": [
    {
      "id": 22,
      "plugin": "VCV-Recorder",
      "version": "1.0.1",
      "model": "Recorder",
      "params": [
        {
          "id": 0,
          "value": 1.00500023
        },
        {
          "id": 1,
          "value": 0.0
        }
      ],
      "leftModuleId": 60,
      "data": {
        "format": "wav",
        "path": "/Users/RAC.H/Desktop/gitshow11-master/recording_002.wav",
        "incrementPath": true,
        "sampleRate": 48000,
        "depth": 24,
        "bitRate": 320000
      },
      "pos": [
        122,
        0
      ]
    },
    {
      "id": 35,
      "plugin": "AudibleInstruments",
      "version": "1.0.0",
      "model": "Stages",
      "params": [
        {
          "id": 0,
          "value": 0.5
        },
        {
          "id": 1,
          "value": 0.5
        },
        {
          "id": 2,
          "value": 0.502999961
        },
        {
          "id": 3,
          "value": 0.239000022
        },
        {
          "id": 4,
          "value": 0.0275001172
        },
        {
          "id": 5,
          "value": 0.543499708
        },
        {
          "id": 6,
          "value": 0.0
        },
        {
          "id": 7,
          "value": 0.0
        },
        {
          "id": 8,
          "value": 0.0
        },
        {
          "id": 9,
          "value": 0.0
        },
        {
          "id": 10,
          "value": 0.0
        },
        {
          "id": 11,
          "value": 0.0
        },
        {
          "id": 12,
          "value": 0.577000022
        },
        {
          "id": 13,
          "value": 0.250999987
        },
        {
          "id": 14,
          "value": 0.572000206
        },
        {
          "id": 15,
          "value": 0.276000202
        },
        {
          "id": 16,
          "value": 0.386999995
        },
        {
          "id": 17,
          "value": 0.68599993
        }
      ],
      "rightModuleId": 43,
      "data": {
        "configurations": [
          {
            "type": 0,
            "loop": false
          },
          {
            "type": 0,
            "loop": false
          },
          {
            "type": 0,
            "loop": false
          },
          {
            "type": 0,
            "loop": false
          },
          {
            "type": 0,
            "loop": false
          },
          {
            "type": 0,
            "loop": false
          }
        ]
      },
      "pos": [
        0,
        1
      ]
    },
    {
      "id": 36,
      "plugin": "ImpromptuModular",
      "version": "1.1.3",
      "model": "Clocked",
      "params": [
        {
          "id": 0,
          "value": 118.0
        },
        {
          "id": 1,
          "value": -9.0
        },
        {
          "id": 2,
          "value": -13.0
        },
        {
          "id": 3,
          "value": -8.0
        },
        {
          "id": 4,
          "value": -0.43200019
        },
        {
          "id": 5,
          "value": -0.470999986
        },
        {
          "id": 6,
          "value": 0.333000004
        },
        {
          "id": 7,
          "value": 0.0
        },
        {
          "id": 8,
          "value": 0.5
        },
        {
          "id": 9,
          "value": 0.373999894
        },
        {
          "id": 10,
          "value": 0.5
        },
        {
          "id": 11,
          "value": 0.5
        },
        {
          "id": 12,
          "value": 0.0
        },
        {
          "id": 13,
          "value": 0.0
        },
        {
          "id": 14,
          "value": 0.0
        },
        {
          "id": 15,
          "value": 0.0
        },
        {
          "id": 16,
          "value": 1.0
        },
        {
          "id": 17,
          "value": 0.0
        },
        {
          "id": 18,
          "value": 0.0
        },
        {
          "id": 19,
          "value": 0.0
        }
      ],
      "rightModuleId": 48,
      "data": {
        "panelTheme": 0,
        "running": false,
        "displayDelayNoteMode": true,
        "bpmDetectionMode": true,
        "restartOnStopStartRun": 0,
        "sendResetOnRestart": false,
        "ppqn": 24,
        "resetClockOutputsHigh": true,
        "momentaryRunInput": true
      },
      "pos": [
        0,
        0
      ]
    },
    {
      "id": 37,
      "plugin": "cf",
      "version": "1.1.1",
      "model": "MONO",
      "params": [
        {
          "id": 0,
          "value": 0.0
        },
        {
          "id": 1,
          "value": 3.47000003
        },
        {
          "id": 2,
          "value": 0.0
        },
        {
          "id": 3,
          "value": 0.0
        }
      ],
      "rightModuleId": 38,
      "data": {
        "solostate": 0,
        "onstate": 1
      },
      "pos": [
        60,
        0
      ]
    },
    {
      "id": 38,
      "plugin": "cf",
      "version": "1.1.1",
      "model": "MONO",
      "params": [
        {
          "id": 0,
          "value": 0.0
        },
        {
          "id": 1,
          "value": 5.0
        },
        {
          "id": 2,
          "value": 0.0
        },
        {
          "id": 3,
          "value": 0.0
        }
      ],
      "leftModuleId": 37,
      "rightModuleId": 39,
      "data": {
        "solostate": 0,
        "onstate": 1
      },
      "pos": [
        66,
        0
      ]
    },
    {
      "id": 39,
      "plugin": "cf",
      "version": "1.1.1",
      "model": "STEREO",
      "params": [
        {
          "id": 0,
          "value": 0.0
        },
        {
          "id": 1,
          "value": 3.1699996
        },
        {
          "id": 2,
          "value": 0.0
        },
        {
          "id": 3,
          "value": 0.0
        }
      ],
      "leftModuleId": 38,
      "rightModuleId": 40,
      "data": {
        "solostate": 0,
        "onstate": 1
      },
      "pos": [
        72,
        0
      ]
    },
    {
      "id": 40,
      "plugin": "cf",
      "version": "1.1.1",
      "model": "MASTER",
      "params": [
        {
          "id": 0,
          "value": 2.02999973
        },
        {
          "id": 1,
          "value": 0.0
        }
      ],
      "leftModuleId": 39,
      "data": {
        "onstate": 1
      },
      "pos": [
        78,
        0
      ]
    },
    {
      "id": 41,
      "plugin": "Valley",
      "version": "1.0.1",
      "model": "Plateau",
      "params": [
        {
          "id": 0,
          "value": 1.0
        },
        {
          "id": 1,
          "value": 0.5
        },
        {
          "id": 2,
          "value": 0.0
        },
        {
          "id": 3,
          "value": 10.0
        },
        {
          "id": 4,
          "value": 10.0
        },
        {
          "id": 5,
          "value": 0.357500196
        },
        {
          "id": 6,
          "value": 10.0
        },
        {
          "id": 7,
          "value": 0.549950004
        },
        {
          "id": 8,
          "value": 10.0
        },
        {
          "id": 9,
          "value": 10.0
        },
        {
          "id": 10,
          "value": 0.0329999998
        },
        {
          "id": 11,
          "value": 0.5
        },
        {
          "id": 12,
          "value": 2.13199997
        },
        {
          "id": 13,
          "value": 0.0
        },
        {
          "id": 14,
          "value": 0.0
        },
        {
          "id": 15,
          "value": 0.0
        },
        {
          "id": 16,
          "value": 0.0
        },
        {
          "id": 17,
          "value": 0.0
        },
        {
          "id": 18,
          "value": 0.0
        },
        {
          "id": 19,
          "value": 0.0
        },
        {
          "id": 20,
          "value": 0.0
        },
        {
          "id": 21,
          "value": 0.0
        },
        {
          "id": 22,
          "value": 0.0
        },
        {
          "id": 23,
          "value": 0.0
        },
        {
          "id": 24,
          "value": 0.0
        },
        {
          "id": 25,
          "value": 0.0
        },
        {
          "id": 26,
          "value": 0.0
        },
        {
          "id": 27,
          "value": 0.0
        },
        {
          "id": 28,
          "value": 0.0
        },
        {
          "id": 29,
          "value": 0.0
        },
        {
          "id": 30,
          "value": 1.0
        }
      ],
      "data": {
        "frozen": false,
        "freezeToggle": false,
        "panelStyle": 0,
        "tuned": 0,
        "diffuseInput": 1,
        "preDelayCVSens": 0,
        "inputSensitivity": 0,
        "outputSaturation": 0
      },
      "pos": [
        87,
        0
      ]
    },
    {
      "id": 42,
      "plugin": "cf",
      "version": "1.1.1",
      "model": "MASTER",
      "params": [
        {
          "id": 0,
          "value": 0.0
        },
        {
          "id": 1,
          "value": 0.0
        }
      ],
      "data": {
        "onstate": 1
      },
      "pos": [
        101,
        0
      ]
    },
    {
      "id": 43,
      "plugin": "Fundamental",
      "version": "1.4.0",
      "model": "Scope",
      "params": [
        {
          "id": 0,
          "value": 0.0
        },
        {
          "id": 1,
          "value": 1.74000001
        },
        {
          "id": 2,
          "value": 0.0
        },
        {
          "id": 3,
          "value": -10.0
        },
        {
          "id": 4,
          "value": 6.7850008
        },
        {
          "id": 5,
          "value": 0.0
        },
        {
          "id": 6,
          "value": 0.0
        },
        {
          "id": 7,
          "value": 0.0
        }
      ],
      "leftModuleId": 35,
      "data": {
        "lissajous": 0,
        "external": 0
      },
      "pos": [
        14,
        1
      ]
    },
    {
      "id": 45,
      "plugin": "Bogaudio",
      "version": "1.1.26",
      "model": "Bogaudio-FMOp",
      "params": [
        {
          "id": 0,
          "value": -0.0900000036
        },
        {
          "id": 1,
          "value": 0.0
        },
        {
          "id": 2,
          "value": 0.141421005
        },
        {
          "id": 3,
          "value": 0.316229999
        },
        {
          "id": 4,
          "value": 1.0
        },
        {
          "id": 5,
          "value": 0.316229999
        },
        {
          "id": 6,
          "value": 0.0
        },
        {
          "id": 7,
          "value": 0.0
        },
        {
          "id": 8,
          "value": 1.0
        },
        {
          "id": 9,
          "value": 0.0
        },
        {
          "id": 10,
          "value": 0.0
        },
        {
          "id": 11,
          "value": 0.0
        }
      ],
      "leftModuleId": 62,
      "rightModuleId": 46,
      "data": {
        "linearLevel": false
      },
      "pos": [
        41,
        1
      ]
    },
    {
      "id": 46,
      "plugin": "Bogaudio",
      "version": "1.1.26",
      "model": "Bogaudio-FMOp",
      "params": [
        {
          "id": 0,
          "value": -0.252000093
        },
        {
          "id": 1,
          "value": 0.0
        },
        {
          "id": 2,
          "value": 0.184920996
        },
        {
          "id": 3,
          "value": 0.343230009
        },
        {
          "id": 4,
          "value": 0.99849999
        },
        {
          "id": 5,
          "value": 0.316229999
        },
        {
          "id": 6,
          "value": 0.0720000267
        },
        {
          "id": 7,
          "value": 0.0
        },
        {
          "id": 8,
          "value": 0.401500106
        },
        {
          "id": 9,
          "value": 0.0
        },
        {
          "id": 10,
          "value": 0.0
        },
        {
          "id": 11,
          "value": 0.0
        }
      ],
      "leftModuleId": 45,
      "rightModuleId": 63,
      "data": {
        "linearLevel": false
      },
      "pos": [
        51,
        1
      ]
    },
    {
      "id": 47,
      "plugin": "StellareModular",
      "version": "1.0.0",
      "model": "TuringMachine",
      "params": [
        {
          "id": 0,
          "value": 0.236000001
        },
        {
          "id": 1,
          "value": 0.126499966
        },
        {
          "id": 2,
          "value": 0.187999949
        },
        {
          "id": 3,
          "value": 0.0469999798
        },
        {
          "id": 4,
          "value": 0.0274998881
        },
        {
          "id": 5,
          "value": 0.264000118
        },
        {
          "id": 6,
          "value": 3.0
        },
        {
          "id": 7,
          "value": 0.386999965
        },
        {
          "id": 8,
          "value": 0.0
        },
        {
          "id": 9,
          "value": 0.0
        },
        {
          "id": 10,
          "value": 0.0
        },
        {
          "id": 11,
          "value": 0.0
        },
        {
          "id": 12,
          "value": 0.0
        }
      ],
      "leftModuleId": 48,
      "rightModuleId": 49,
      "data": {
        "pulses_mode": 0
      },
      "pos": [
        23,
        0
      ]
    },
    {
      "id": 48,
      "plugin": "Bogaudio",
      "version": "1.1.26",
      "model": "Bogaudio-Mult",
      "params": [],
      "leftModuleId": 36,
      "rightModuleId": 47,
      "pos": [
        20,
        0
      ]
    },
    {
      "id": 49,
      "plugin": "ML_modules",
      "version": "1.0.5",
      "model": "Quantum",
      "params": [
        {
          "id": 0,
          "value": 0.0
        },
        {
          "id": 1,
          "value": 0.0
        },
        {
          "id": 2,
          "value": 0.0
        },
        {
          "id": 3,
          "value": 0.0
        },
        {
          "id": 4,
          "value": 0.0
        },
        {
          "id": 5,
          "value": 0.0
        },
        {
          "id": 6,
          "value": 0.0
        },
        {
          "id": 7,
          "value": 0.0
        },
        {
          "id": 8,
          "value": 0.0
        },
        {
          "id": 9,
          "value": 0.0
        },
        {
          "id": 10,
          "value": 0.0
        },
        {
          "id": 11,
          "value": 0.0
        }
      ],
      "leftModuleId": 47,
      "rightModuleId": 50,
      "data": {
        "scale": [
          1,
          0,
          0,
          1,
          0,
          0,
          0,
          1,
          0,
          0,
          1,
          0
        ],
        "mode": 3,
        "transpose_select": 1,
        "toggle_mode": 0
      },
      "pos": [
        41,
        0
      ]
    },
    {
      "id": 50,
      "plugin": "Bogaudio",
      "version": "1.1.26",
      "model": "Bogaudio-Mult",
      "params": [],
      "leftModuleId": 49,
      "rightModuleId": 55,
      "pos": [
        49,
        0
      ]
    },
    {
      "id": 55,
      "plugin": "Bogaudio",
      "version": "1.1.26",
      "model": "Bogaudio-Noise",
      "params": [],
      "leftModuleId": 50,
      "data": {
        "noise_channels": 1
      },
      "pos": [
        52,
        0
      ]
    },
    {
      "id": 57,
      "plugin": "ML_modules",
      "version": "1.0.5",
      "model": "Quantum",
      "params": [
        {
          "id": 0,
          "value": 0.0
        },
        {
          "id": 1,
          "value": 0.0
        },
        {
          "id": 2,
          "value": 0.0
        },
        {
          "id": 3,
          "value": 0.0
        },
        {
          "id": 4,
          "value": 0.0
        },
        {
          "id": 5,
          "value": 0.0
        },
        {
          "id": 6,
          "value": 0.0
        },
        {
          "id": 7,
          "value": 0.0
        },
        {
          "id": 8,
          "value": 0.0
        },
        {
          "id": 9,
          "value": 0.0
        },
        {
          "id": 10,
          "value": 0.0
        },
        {
          "id": 11,
          "value": 0.0
        }
      ],
      "rightModuleId": 59,
      "data": {
        "scale": [
          1,
          0,
          0,
          1,
          0,
          0,
          0,
          1,
          0,
          0,
          1,
          0
        ],
        "mode": 0,
        "transpose_select": 1,
        "toggle_mode": 0
      },
      "pos": [
        79,
        1
      ]
    },
    {
      "id": 59,
      "plugin": "AudibleInstruments",
      "version": "1.0.0",
      "model": "Braids",
      "params": [
        {
          "id": 0,
          "value": 0.0929999501
        },
        {
          "id": 1,
          "value": 0.371999621
        },
        {
          "id": 2,
          "value": 0.234000027
        },
        {
          "id": 3,
          "value": 0.323000044
        },
        {
          "id": 4,
          "value": 0.22800003
        },
        {
          "id": 5,
          "value": 0.625999928
        },
        {
          "id": 6,
          "value": 0.99849999
        }
      ],
      "leftModuleId": 57,
      "rightModuleId": 61,
      "data": {
        "settings": [
          46,
          0,
          0,
          0,
          0,
          0,
          0,
          0,
          0,
          0,
          0,
          0,
          0,
          0,
          0,
          0,
          0,
          0,
          0,
          0
        ],
        "lowCpu": false
      },
      "pos": [
        87,
        1
      ]
    },
    {
      "id": 60,
      "plugin": "Core",
      "version": "1.1.6",
      "model": "AudioInterface",
      "params": [],
      "rightModuleId": 22,
      "data": {
        "audio": {
          "driver": 5,
          "deviceName": "Apple Inc.: Built-in Output",
          "offset": 0,
          "maxChannels": 8,
          "sampleRate": 96000,
          "blockSize": 1024
        }
      },
      "pos": [
        112,
        0
      ]
    },
    {
      "id": 61,
      "plugin": "VultModulesFree",
      "version": "1.6.0",
      "model": "Tangents",
      "params": [
        {
          "id": 0,
          "value": 0.0
        },
        {
          "id": 1,
          "value": 0.636000216
        },
        {
          "id": 2,
          "value": 0.0630000383
        },
        {
          "id": 3,
          "value": 0.152999997
        },
        {
          "id": 4,
          "value": 0.959999919
        },
        {
          "id": 5,
          "value": 0.0
        },
        {
          "id": 6,
          "value": 0.0
        }
      ],
      "leftModuleId": 59,
      "pos": [
        103,
        1
      ]
    },
    {
      "id": 62,
      "plugin": "Befaco",
      "version": "1.0.0",
      "model": "EvenVCO",
      "params": [
        {
          "id": 0,
          "value": -1.0
        },
        {
          "id": 1,
          "value": 2.81400013
        },
        {
          "id": 2,
          "value": -0.20100002
        }
      ],
      "rightModuleId": 45,
      "pos": [
        33,
        1
      ]
    },
    {
      "id": 63,
      "plugin": "squinkylabs-plug1",
      "version": "1.0.5",
      "model": "squinkylabs-funv",
      "params": [
        {
          "id": 0,
          "value": 1.0
        },
        {
          "id": 1,
          "value": 1.0
        },
        {
          "id": 2,
          "value": 14.5799971
        },
        {
          "id": 3,
          "value": -0.149999976
        },
        {
          "id": 4,
          "value": 0.13500002
        },
        {
          "id": 5,
          "value": 0.70849973
        },
        {
          "id": 6,
          "value": 0.0
        }
      ],
      "leftModuleId": 46,
      "rightModuleId": 64,
      "pos": [
        61,
        1
      ]
    },
    {
      "id": 64,
      "plugin": "Fundamental",
      "version": "1.4.0",
      "model": "VCA-1",
      "params": [
        {
          "id": 0,
          "value": 1.0
        },
        {
          "id": 1,
          "value": 1.0
        }
      ],
      "leftModuleId": 63,
      "pos": [
        71,
        1
      ]
    }
  ],
  "cables": [
    {
      "id": 393,
      "outputModuleId": 37,
      "outputId": 1,
      "inputModuleId": 38,
      "inputId": 5,
      "color": "#c9b70e"
    },
    {
      "id": 394,
      "outputModuleId": 37,
      "outputId": 2,
      "inputModuleId": 38,
      "inputId": 6,
      "color": "#0c8e15"
    },
    {
      "id": 395,
      "outputModuleId": 38,
      "outputId": 1,
      "inputModuleId": 39,
      "inputId": 5,
      "color": "#c91847"
    },
    {
      "id": 396,
      "outputModuleId": 38,
      "outputId": 2,
      "inputModuleId": 39,
      "inputId": 6,
      "color": "#0986ad"
    },
    {
      "id": 397,
      "outputModuleId": 39,
      "outputId": 1,
      "inputModuleId": 40,
      "inputId": 2,
      "color": "#c9b70e"
    },
    {
      "id": 398,
      "outputModuleId": 39,
      "outputId": 2,
      "inputModuleId": 40,
      "inputId": 3,
      "color": "#0c8e15"
    },
    {
      "id": 399,
      "outputModuleId": 40,
      "outputId": 2,
      "inputModuleId": 41,
      "inputId": 0,
      "color": "#c91847"
    },
    {
      "id": 400,
      "outputModuleId": 40,
      "outputId": 3,
      "inputModuleId": 41,
      "inputId": 1,
      "color": "#0986ad"
    },
    {
      "id": 401,
      "outputModuleId": 41,
      "outputId": 0,
      "inputModuleId": 42,
      "inputId": 2,
      "color": "#c9b70e"
    },
    {
      "id": 402,
      "outputModuleId": 41,
      "outputId": 1,
      "inputModuleId": 42,
      "inputId": 3,
      "color": "#0c8e15"
    },
    {
      "id": 408,
      "outputModuleId": 36,
      "outputId": 0,
      "inputModuleId": 48,
      "inputId": 0,
      "color": "#c91847"
    },
    {
      "id": 409,
      "outputModuleId": 48,
      "outputId": 0,
      "inputModuleId": 35,
      "inputId": 11,
      "color": "#0986ad"
    },
    {
      "id": 410,
      "outputModuleId": 36,
      "outputId": 1,
      "inputModuleId": 47,
      "inputId": 0,
      "color": "#c9b70e"
    },
    {
      "id": 411,
      "outputModuleId": 47,
      "outputId": 14,
      "inputModuleId": 49,
      "inputId": 0,
      "color": "#0c8e15"
    },
    {
      "id": 412,
      "outputModuleId": 49,
      "outputId": 0,
      "inputModuleId": 50,
      "inputId": 0,
      "color": "#c91847"
    },
    {
      "id": 413,
      "outputModuleId": 50,
      "outputId": 0,
      "inputModuleId": 45,
      "inputId": 4,
      "color": "#0986ad"
    },
    {
      "id": 419,
      "outputModuleId": 48,
      "outputId": 1,
      "inputModuleId": 35,
      "inputId": 10,
      "color": "#c91847"
    },
    {
      "id": 418,
      "outputModuleId": 35,
      "outputId": 4,
      "inputModuleId": 46,
      "inputId": 2,
      "color": "#0c8e15"
    },
    {
      "id": 426,
      "outputModuleId": 55,
      "outputId": 4,
      "inputModuleId": 46,
      "inputId": 4,
      "color": "#0c8e15"
    },
    {
      "id": 422,
      "outputModuleId": 46,
      "outputId": 0,
      "inputModuleId": 39,
      "inputId": 9,
      "color": "#0c8e15"
    },
    {
      "id": 421,
      "outputModuleId": 45,
      "outputId": 0,
      "inputModuleId": 39,
      "inputId": 8,
      "color": "#c9b70e"
    },
    {
      "id": 434,
      "outputModuleId": 47,
      "outputId": 12,
      "inputModuleId": 57,
      "inputId": 0,
      "color": "#0986ad"
    },
    {
      "id": 435,
      "outputModuleId": 57,
      "outputId": 0,
      "inputModuleId": 59,
      "inputId": 1,
      "color": "#c9b70e"
    },
    {
      "id": 436,
      "outputModuleId": 59,
      "outputId": 0,
      "inputModuleId": 61,
      "inputId": 0,
      "color": "#0c8e15"
    },
    {
      "id": 437,
      "outputModuleId": 61,
      "outputId": 0,
      "inputModuleId": 38,
      "inputId": 8,
      "color": "#c91847"
    },
    {
      "id": 439,
      "outputModuleId": 48,
      "outputId": 2,
      "inputModuleId": 35,
      "inputId": 9,
      "color": "#c9b70e"
    },
    {
      "id": 420,
      "outputModuleId": 35,
      "outputId": 5,
      "inputModuleId": 45,
      "inputId": 2,
      "color": "#0986ad"
    },
    {
      "id": 438,
      "outputModuleId": 35,
      "outputId": 3,
      "inputModuleId": 61,
      "inputId": 3,
      "color": "#0986ad"
    },
    {
      "id": 442,
      "outputModuleId": 48,
      "outputId": 3,
      "inputModuleId": 35,
      "inputId": 8,
      "color": "#0986ad"
    },
    {
      "id": 443,
      "outputModuleId": 50,
      "outputId": 2,
      "inputModuleId": 63,
      "inputId": 0,
      "color": "#0c8e15"
    },
    {
      "id": 444,
      "outputModuleId": 63,
      "outputId": 3,
      "inputModuleId": 64,
      "inputId": 1,
      "color": "#c91847"
    },
    {
      "id": 445,
      "outputModuleId": 64,
      "outputId": 0,
      "inputModuleId": 37,
      "inputId": 8,
      "color": "#0986ad"
    },
    {
      "id": 441,
      "outputModuleId": 35,
      "outputId": 2,
      "inputModuleId": 64,
      "inputId": 0,
      "color": "#c91847"
    },
    {
      "id": 446,
      "outputModuleId": 50,
      "outputId": 1,
      "inputModuleId": 55,
      "inputId": 0,
      "color": "#0c8e15"
    },
    {
      "id": 447,
      "outputModuleId": 42,
      "outputId": 2,
      "inputModuleId": 60,
      "inputId": 0,
      "color": "#c91847"
    },
    {
      "id": 448,
      "outputModuleId": 42,
      "outputId": 3,
      "inputModuleId": 60,
      "inputId": 1,
      "color": "#0986ad"
    },
    {
      "id": 450,
      "outputModuleId": 35,
      "outputId": 0,
      "inputModuleId": 35,
      "inputId": 1,
      "color": "#c91847"
    },
    {
      "id": 452,
      "outputModuleId": 48,
      "outputId": 4,
      "inputModuleId": 35,
      "inputId": 7,
      "color": "#c9b70e"
    },
    {
      "id": 451,
      "outputModuleId": 35,
      "outputId": 1,
      "inputModuleId": 63,
      "inputId": 3,
      "color": "#0986ad"
    },
    {
      "id": 453,
      "outputModuleId": 47,
      "outputId": 0,
      "inputModuleId": 35,
      "inputId": 6,
      "color": "#0986ad"
    },
    {
      "id": 455,
      "outputModuleId": 47,
      "outputId": 6,
      "inputModuleId": 35,
      "inputId": 4,
      "color": "#0c8e15"
    },
    {
      "id": 459,
      "outputModuleId": 36,
      "outputId": 5,
      "inputModuleId": 47,
      "inputId": 1,
      "color": "#0986ad"
    },
    {
      "id": 458,
      "outputModuleId": 36,
      "outputId": 2,
      "inputModuleId": 35,
      "inputId": 0,
      "color": "#c91847"
    },
    {
      "id": 456,
      "outputModuleId": 62,
      "outputId": 0,
      "inputModuleId": 35,
      "inputId": 5,
      "color": "#c91847"
    },
    {
      "id": 457,
      "outputModuleId": 62,
      "outputId": 1,
      "inputModuleId": 35,
      "inputId": 2,
      "color": "#0986ad"
    },
    {
      "id": 454,
      "outputModuleId": 47,
      "outputId": 9,
      "inputModuleId": 35,
      "inputId": 3,
      "color": "#c9b70e"
    },
    {
      "id": 460,
      "outputModuleId": 60,
      "outputId": 4,
      "inputModuleId": 22,
      "inputId": 2,
      "color": "#0c8e15"
    },
    {
      "id": 461,
      "outputModuleId": 60,
      "outputId": 5,
      "inputModuleId": 22,
      "inputId": 3,
      "color": "#c91847"
    }
  ]
}