{
  "version": "1.1.6",
  "modules": [
    {
      "id": 1,
      "plugin": "Core",
      "version": "1.1.6",
      "model": "AudioInterface",
      "params": [],
      "leftModuleId": 2,
      "data": {
        "audio": {
          "driver": 5,
          "deviceName": "Apple Inc.: External Headphones",
          "offset": 0,
          "maxChannels": 8,
          "sampleRate": 44100,
          "blockSize": 256
        }
      },
      "pos": [
        84,
        0
      ]
    },
    {
      "id": 2,
      "plugin": "Fundamental",
      "version": "1.4.0",
      "model": "VCMixer",
      "params": [
        {
          "id": 0,
          "value": 1.02200007
        },
        {
          "id": 1,
          "value": 0.997021854
        },
        {
          "id": 2,
          "value": 0.913582325
        },
        {
          "id": 3,
          "value": 1.0
        },
        {
          "id": 4,
          "value": 1.0
        }
      ],
      "leftModuleId": 7,
      "rightModuleId": 1,
      "pos": [
        74,
        0
      ]
    },
    {
      "id": 4,
      "plugin": "Fundamental",
      "version": "1.4.0",
      "model": "VCF",
      "params": [
        {
          "id": 0,
          "value": 1.0
        },
        {
          "id": 1,
          "value": 0.5
        },
        {
          "id": 2,
          "value": 0.423999965
        },
        {
          "id": 3,
          "value": 0.510999978
        },
        {
          "id": 4,
          "value": 0.0
        }
      ],
      "leftModuleId": 17,
      "rightModuleId": 18,
      "pos": [
        35,
        0
      ]
    },
    {
      "id": 7,
      "plugin": "Fundamental",
      "version": "1.4.0",
      "model": "Scope",
      "params": [
        {
          "id": 0,
          "value": 0.0
        },
        {
          "id": 1,
          "value": 0.0
        },
        {
          "id": 2,
          "value": 0.0
        },
        {
          "id": 3,
          "value": 0.0
        },
        {
          "id": 4,
          "value": 14.0
        },
        {
          "id": 5,
          "value": 0.0
        },
        {
          "id": 6,
          "value": 0.0
        },
        {
          "id": 7,
          "value": 0.0
        }
      ],
      "leftModuleId": 21,
      "rightModuleId": 2,
      "data": {
        "lissajous": 0,
        "external": 0
      },
      "pos": [
        61,
        0
      ]
    },
    {
      "id": 17,
      "plugin": "VCV-Prototype",
      "version": "1.2.0",
      "model": "Prototype",
      "params": [
        {
          "id": 0,
          "value": 0.0
        },
        {
          "id": 1,
          "value": 0.0
        },
        {
          "id": 2,
          "value": 0.0
        },
        {
          "id": 3,
          "value": 0.0
        },
        {
          "id": 4,
          "value": 0.0
        },
        {
          "id": 5,
          "value": 0.0
        },
        {
          "id": 6,
          "value": 0.0
        },
        {
          "id": 7,
          "value": 0.0
        },
        {
          "id": 8,
          "value": 0.0
        },
        {
          "id": 9,
          "value": 0.0
        },
        {
          "id": 10,
          "value": 0.0
        },
        {
          "id": 11,
          "value": 0.0
        }
      ],
      "leftModuleId": 30,
      "rightModuleId": 4,
      "data": {
        "path": "/Users/mp/_gitshows/gitShow1/module1.js",
        "script": "\t// knobs 0-5 in code correspond to knobs 1-6 on the prototype faceplate\n\t// inputs 0-5 in code correspond to inputs 1-6 on the prototype faceplate\n\t// outputs 0-5 in code correspond to outputs 1-6 on the prototype faceplate\n\nconfig.frameDivider = 1\nconfig.bufferSize = 1\n\nvar phase = 0\nfunction process(block) {\n\t// set pitch  according to knob 0\n\t// Knob ranges from -5 to 5 octaves\n\tvar pitch = block.knobs[0] * 10 - 5\n\t// modulate pitch using input 0 as cv\n\t// Input follows 1V/oct standard\n\tpitch += block.inputs[0][0]\t\t\n\n\t// The relationship between 1V/oct pitch and frequency is `freq = 2^pitch`.\n\n\t// https://vcvrack.com/manual/VoltageStandards.html#pitch-and-frequencies\n\tvar freq = 111.6256\n\tfreq += freq * Math.pow(2, pitch)\n\n\t// manipulate the buffer size of the this module\n\tbufSizeKnob = Math.round(block.knobs[1] * 120)\n\tblock.bufferSize += bufSizeKnob\n\tif (block.inputs[1][0] === 0){\n\t\t// ignore input, use only knob value\n\t} else {\n\t\t// modulate the bufferSize by the sum of input 1 and knob 1\n\t\tblock.bufferSize = block.inputs[1][0] + bufSizeKnob\n\t}\n\n\t// manipulate the frame division\n\tframeDivKnob = Math.round(block.knobs[2] * 32)\n\tframeDivider = config.frameDivider + frameDivKnob\n\n\tif (block.inputs[2][0] === 0){\n\t\t// ignore input 2, use only knob  value\n\t} else {\n\t\t// modulate the frameDivision by the sum of input 2 and knob 2\n\t\tframeDivider = frameDivider + Math.round(block.inputs[2][0] * 4)\n\t}\n\n\t// I *think* block.sampleTime corresponds to the sample-length? anyway, manipulating this results in some satisfying glitch\n\tblock.sampleTime += block.knobs[3] * 10\n\n\tif (block.inputs[3][0] !== 0){\n\t\t// ignore cv input, use only knob 3 value\n\t} else {\n\t\t// modulate sampleTime by adding input 3 as cv\n\t\tblock.sampleTime = block.sampleTime + (block.inputs[3][0] / 22050)\n\n\t\tif (block.inputs[4][0] !== 0){\n\t\t\t// if a cable is connected to input 4, add that value to sampleTime\n\t\t\tblock.sampleTime += block.inputs[4][0] / 100\n\t\t}\n\t}\n\n\t// Set all samples in output buffer\n\tvar deltaPhase = frameDivider * block.sampleTime * freq\n\tfor (var i = 0; i < block.bufferSize; i++) {\n\t\t// Accumulate phase\n\t\tphase += deltaPhase\n\t\t// Wrap phase around range [0, 1]\n\t\tphase %= 1\n\t\t// Convert phase to sine output\n\t\tblock.outputs[0][i] = Math.sin(2 * Math.PI * phase) * 5\n\t}\n}\n"
      },
      "pos": [
        20,
        0
      ]
    },
    {
      "id": 18,
      "plugin": "Fundamental",
      "version": "1.4.0",
      "model": "LFO",
      "params": [
        {
          "id": 0,
          "value": 1.0
        },
        {
          "id": 1,
          "value": 0.0
        },
        {
          "id": 2,
          "value": 2.87199807
        },
        {
          "id": 3,
          "value": 0.712500036
        },
        {
          "id": 4,
          "value": 0.657000005
        },
        {
          "id": 5,
          "value": 0.5
        },
        {
          "id": 6,
          "value": 0.64650017
        }
      ],
      "leftModuleId": 4,
      "rightModuleId": 21,
      "pos": [
        43,
        0
      ]
    },
    {
      "id": 22,
      "plugin": "VCV-Recorder",
      "version": "1.0.1",
      "model": "Recorder",
      "params": [
        {
          "id": 0,
          "value": 1.01100004
        },
        {
          "id": 1,
          "value": 0.0
        }
      ],
      "data": {
        "format": "wav",
        "path": "",
        "incrementPath": true,
        "sampleRate": 44100,
        "depth": 16,
        "bitRate": 320000
      },
      "pos": [
        89,
        1
      ]
    },
    {
      "id": 24,
      "plugin": "Fundamental",
      "version": "1.4.0",
      "model": "Scope",
      "params": [
        {
          "id": 0,
          "value": 0.0
        },
        {
          "id": 1,
          "value": 0.0
        },
        {
          "id": 2,
          "value": 0.0
        },
        {
          "id": 3,
          "value": 0.0
        },
        {
          "id": 4,
          "value": 14.0
        },
        {
          "id": 5,
          "value": 0.0
        },
        {
          "id": 6,
          "value": 0.0
        },
        {
          "id": 7,
          "value": 0.0
        }
      ],
      "leftModuleId": 27,
      "rightModuleId": 26,
      "data": {
        "lissajous": 0,
        "external": 0
      },
      "pos": [
        20,
        1
      ]
    },
    {
      "id": 26,
      "plugin": "Fundamental",
      "version": "1.4.0",
      "model": "LFO",
      "params": [
        {
          "id": 0,
          "value": 0.0
        },
        {
          "id": 1,
          "value": 1.0
        },
        {
          "id": 2,
          "value": 0.370009124
        },
        {
          "id": 3,
          "value": 0.712500036
        },
        {
          "id": 4,
          "value": 0.657000005
        },
        {
          "id": 5,
          "value": 0.5
        },
        {
          "id": 6,
          "value": 0.64650017
        }
      ],
      "leftModuleId": 24,
      "rightModuleId": 34,
      "pos": [
        33,
        1
      ]
    },
    {
      "id": 21,
      "plugin": "Fundamental",
      "version": "1.4.0",
      "model": "8vert",
      "params": [
        {
          "id": 0,
          "value": -0.296000004
        },
        {
          "id": 1,
          "value": 1.0
        },
        {
          "id": 2,
          "value": 0.0
        },
        {
          "id": 3,
          "value": 1.0
        },
        {
          "id": 4,
          "value": 0.0
        },
        {
          "id": 5,
          "value": 0.0
        },
        {
          "id": 6,
          "value": 0.279999882
        },
        {
          "id": 7,
          "value": 0.00399999041
        }
      ],
      "leftModuleId": 18,
      "rightModuleId": 7,
      "pos": [
        53,
        0
      ]
    },
    {
      "id": 27,
      "plugin": "Fundamental",
      "version": "1.4.0",
      "model": "LFO",
      "params": [
        {
          "id": 0,
          "value": 1.0
        },
        {
          "id": 1,
          "value": 0.0
        },
        {
          "id": 2,
          "value": 5.01399708
        },
        {
          "id": 3,
          "value": 0.622500062
        },
        {
          "id": 4,
          "value": 0.657000005
        },
        {
          "id": 5,
          "value": 0.408860773
        },
        {
          "id": 6,
          "value": 0.574499965
        }
      ],
      "leftModuleId": 32,
      "rightModuleId": 24,
      "pos": [
        10,
        1
      ]
    },
    {
      "id": 29,
      "plugin": "AudibleInstruments",
      "version": "1.0.0",
      "model": "Branches",
      "params": [
        {
          "id": 0,
          "value": 0.524500251
        },
        {
          "id": 1,
          "value": 0.5
        },
        {
          "id": 2,
          "value": 0.0
        },
        {
          "id": 3,
          "value": 0.0
        }
      ],
      "rightModuleId": 30,
      "data": {
        "modes": [
          false,
          false
        ]
      },
      "pos": [
        4,
        0
      ]
    },
    {
      "id": 30,
      "plugin": "Fundamental",
      "version": "1.4.0",
      "model": "VCMixer",
      "params": [
        {
          "id": 0,
          "value": 0.990000248
        },
        {
          "id": 1,
          "value": 0.960251868
        },
        {
          "id": 2,
          "value": 1.0
        },
        {
          "id": 3,
          "value": 1.0
        },
        {
          "id": 4,
          "value": 1.0
        }
      ],
      "leftModuleId": 29,
      "rightModuleId": 17,
      "pos": [
        10,
        0
      ]
    },
    {
      "id": 32,
      "plugin": "Fundamental",
      "version": "1.4.0",
      "model": "LFO",
      "params": [
        {
          "id": 0,
          "value": 1.0
        },
        {
          "id": 1,
          "value": 1.0
        },
        {
          "id": 2,
          "value": 1.58500159
        },
        {
          "id": 3,
          "value": 0.712500036
        },
        {
          "id": 4,
          "value": 0.657000005
        },
        {
          "id": 5,
          "value": 0.5
        },
        {
          "id": 6,
          "value": 0.64650017
        }
      ],
      "rightModuleId": 27,
      "pos": [
        0,
        1
      ]
    },
    {
      "id": 33,
      "plugin": "AudibleInstruments",
      "version": "1.0.0",
      "model": "Clouds",
      "params": [
        {
          "id": 0,
          "value": 0.0
        },
        {
          "id": 1,
          "value": 0.0
        },
        {
          "id": 2,
          "value": 0.0
        },
        {
          "id": 3,
          "value": 0.483999789
        },
        {
          "id": 4,
          "value": 0.503500044
        },
        {
          "id": 5,
          "value": -1.79599965
        },
        {
          "id": 6,
          "value": 1.0
        },
        {
          "id": 7,
          "value": 0.693998098
        },
        {
          "id": 8,
          "value": 1.0
        },
        {
          "id": 9,
          "value": 1.0
        },
        {
          "id": 10,
          "value": 0.0
        },
        {
          "id": 11,
          "value": 0.0
        },
        {
          "id": 12,
          "value": 0.0
        }
      ],
      "leftModuleId": 34,
      "data": {
        "playback": 0,
        "quality": 0,
        "blendMode": 0
      },
      "pos": [
        53,
        1
      ]
    },
    {
      "id": 34,
      "plugin": "Fundamental",
      "version": "1.4.0",
      "model": "LFO",
      "params": [
        {
          "id": 0,
          "value": 1.0
        },
        {
          "id": 1,
          "value": 1.0
        },
        {
          "id": 2,
          "value": 1.69300294
        },
        {
          "id": 3,
          "value": 0.0
        },
        {
          "id": 4,
          "value": 0.0
        },
        {
          "id": 5,
          "value": 0.5
        },
        {
          "id": 6,
          "value": 0.0
        }
      ],
      "leftModuleId": 26,
      "rightModuleId": 33,
      "pos": [
        43,
        1
      ]
    }
  ],
  "cables": [
    {
      "id": 296,
      "outputModuleId": 18,
      "outputId": 1,
      "inputModuleId": 18,
      "inputId": 3,
      "color": "#0986ad"
    },
    {
      "id": 304,
      "outputModuleId": 17,
      "outputId": 0,
      "inputModuleId": 24,
      "inputId": 0,
      "color": "#c91847"
    },
    {
      "id": 295,
      "outputModuleId": 18,
      "outputId": 3,
      "inputModuleId": 21,
      "inputId": 1,
      "color": "#c91847"
    },
    {
      "id": 302,
      "outputModuleId": 21,
      "outputId": 1,
      "inputModuleId": 4,
      "inputId": 1,
      "color": "#0c8e15"
    },
    {
      "id": 328,
      "outputModuleId": 18,
      "outputId": 2,
      "inputModuleId": 21,
      "inputId": 3,
      "color": "#c91847"
    },
    {
      "id": 335,
      "outputModuleId": 17,
      "outputId": 0,
      "inputModuleId": 4,
      "inputId": 3,
      "color": "#c91847"
    },
    {
      "id": 344,
      "outputModuleId": 2,
      "outputId": 2,
      "inputModuleId": 22,
      "inputId": 3,
      "color": "#0986ad"
    },
    {
      "id": 351,
      "outputModuleId": 27,
      "outputId": 3,
      "inputModuleId": 26,
      "inputId": 2,
      "color": "#c91847"
    },
    {
      "id": 352,
      "outputModuleId": 27,
      "outputId": 3,
      "inputModuleId": 18,
      "inputId": 2,
      "color": "#0986ad"
    },
    {
      "id": 357,
      "outputModuleId": 17,
      "outputId": 0,
      "inputModuleId": 30,
      "inputId": 1,
      "color": "#c9b70e"
    },
    {
      "id": 358,
      "outputModuleId": 29,
      "outputId": 0,
      "inputModuleId": 30,
      "inputId": 5,
      "color": "#0c8e15"
    },
    {
      "id": 365,
      "outputModuleId": 27,
      "outputId": 3,
      "inputModuleId": 32,
      "inputId": 2,
      "color": "#0c8e15"
    },
    {
      "id": 366,
      "outputModuleId": 32,
      "outputId": 0,
      "inputModuleId": 29,
      "inputId": 0,
      "color": "#0986ad"
    },
    {
      "id": 367,
      "outputModuleId": 26,
      "outputId": 1,
      "inputModuleId": 29,
      "inputId": 2,
      "color": "#c9b70e"
    },
    {
      "id": 375,
      "outputModuleId": 26,
      "outputId": 0,
      "inputModuleId": 17,
      "inputId": 1,
      "color": "#c9b70e"
    },
    {
      "id": 343,
      "outputModuleId": 2,
      "outputId": 1,
      "inputModuleId": 22,
      "inputId": 2,
      "color": "#c91847"
    },
    {
      "id": 380,
      "outputModuleId": 2,
      "outputId": 0,
      "inputModuleId": 1,
      "inputId": 0,
      "color": "#c9b70e"
    },
    {
      "id": 368,
      "outputModuleId": 26,
      "outputId": 2,
      "inputModuleId": 17,
      "inputId": 2,
      "color": "#0c8e15"
    },
    {
      "id": 353,
      "outputModuleId": 4,
      "outputId": 0,
      "inputModuleId": 2,
      "inputId": 6,
      "color": "#c9b70e"
    },
    {
      "id": 334,
      "outputModuleId": 4,
      "outputId": 0,
      "inputModuleId": 33,
      "inputId": 6,
      "color": "#0c8e15"
    },
    {
      "id": 337,
      "outputModuleId": 4,
      "outputId": 1,
      "inputModuleId": 33,
      "inputId": 7,
      "color": "#c9b70e"
    },
    {
      "id": 383,
      "outputModuleId": 33,
      "outputId": 0,
      "inputModuleId": 2,
      "inputId": 1,
      "color": "#c91847"
    },
    {
      "id": 384,
      "outputModuleId": 33,
      "outputId": 1,
      "inputModuleId": 2,
      "inputId": 2,
      "color": "#0986ad"
    },
    {
      "id": 388,
      "outputModuleId": 34,
      "outputId": 3,
      "inputModuleId": 33,
      "inputId": 0,
      "color": "#0986ad"
    },
    {
      "id": 389,
      "outputModuleId": 34,
      "outputId": 2,
      "inputModuleId": 33,
      "inputId": 9,
      "color": "#c9b70e"
    },
    {
      "id": 390,
      "outputModuleId": 26,
      "outputId": 0,
      "inputModuleId": 33,
      "inputId": 2,
      "color": "#0986ad"
    },
    {
      "id": 391,
      "outputModuleId": 32,
      "outputId": 2,
      "inputModuleId": 33,
      "inputId": 3,
      "color": "#0c8e15"
    },
    {
      "id": 381,
      "outputModuleId": 2,
      "outputId": 0,
      "inputModuleId": 1,
      "inputId": 1,
      "color": "#0c8e15"
    },
    {
      "id": 392,
      "outputModuleId": 2,
      "outputId": 0,
      "inputModuleId": 7,
      "inputId": 0,
      "color": "#0c8e15"
    }
  ]
}