{
  "version": "1.1.6",
  "modules": [
    {
      "id": 22,
      "plugin": "VCV-Recorder",
      "version": "1.0.1",
      "model": "Recorder",
      "params": [
        {
          "id": 0,
          "value": 0.987000167
        },
        {
          "id": 1,
          "value": 0.0
        }
      ],
      "leftModuleId": 60,
      "data": {
        "format": "wav",
        "path": "D:\\Documents\\GitHub\\gitshow11/recording.wav",
        "incrementPath": false,
        "sampleRate": 44100,
        "depth": 24,
        "bitRate": 320000
      },
      "pos": [
        124,
        0
      ]
    },
    {
      "id": 35,
      "plugin": "AudibleInstruments",
      "version": "1.0.0",
      "model": "Stages",
      "params": [
        {
          "id": 0,
          "value": 0.5
        },
        {
          "id": 1,
          "value": 0.5
        },
        {
          "id": 2,
          "value": 0.502999961
        },
        {
          "id": 3,
          "value": 0.239000022
        },
        {
          "id": 4,
          "value": 0.0275001172
        },
        {
          "id": 5,
          "value": 0.543499708
        },
        {
          "id": 6,
          "value": 0.0
        },
        {
          "id": 7,
          "value": 0.0
        },
        {
          "id": 8,
          "value": 0.0
        },
        {
          "id": 9,
          "value": 0.0
        },
        {
          "id": 10,
          "value": 0.0
        },
        {
          "id": 11,
          "value": 0.0
        },
        {
          "id": 12,
          "value": 0.577000022
        },
        {
          "id": 13,
          "value": 0.250999987
        },
        {
          "id": 14,
          "value": 0.572000206
        },
        {
          "id": 15,
          "value": 0.276000202
        },
        {
          "id": 16,
          "value": 0.386999995
        },
        {
          "id": 17,
          "value": 0.68599993
        }
      ],
      "data": {
        "configurations": [
          {
            "type": 0,
            "loop": false
          },
          {
            "type": 0,
            "loop": false
          },
          {
            "type": 0,
            "loop": false
          },
          {
            "type": 0,
            "loop": false
          },
          {
            "type": 0,
            "loop": false
          },
          {
            "type": 0,
            "loop": false
          }
        ]
      },
      "pos": [
        2,
        1
      ]
    },
    {
      "id": 37,
      "plugin": "cf",
      "version": "1.1.1",
      "model": "MONO",
      "params": [
        {
          "id": 0,
          "value": 0.0
        },
        {
          "id": 1,
          "value": 3.59500027
        },
        {
          "id": 2,
          "value": 0.0
        },
        {
          "id": 3,
          "value": 0.0
        }
      ],
      "rightModuleId": 38,
      "data": {
        "solostate": 0,
        "onstate": 1
      },
      "pos": [
        62,
        0
      ]
    },
    {
      "id": 38,
      "plugin": "cf",
      "version": "1.1.1",
      "model": "MONO",
      "params": [
        {
          "id": 0,
          "value": 0.0
        },
        {
          "id": 1,
          "value": 3.48999906
        },
        {
          "id": 2,
          "value": 0.0
        },
        {
          "id": 3,
          "value": 0.0
        }
      ],
      "leftModuleId": 37,
      "rightModuleId": 39,
      "data": {
        "solostate": 0,
        "onstate": 1
      },
      "pos": [
        68,
        0
      ]
    },
    {
      "id": 39,
      "plugin": "cf",
      "version": "1.1.1",
      "model": "STEREO",
      "params": [
        {
          "id": 0,
          "value": 0.0
        },
        {
          "id": 1,
          "value": 0.0
        },
        {
          "id": 2,
          "value": 0.0
        },
        {
          "id": 3,
          "value": 0.0
        }
      ],
      "leftModuleId": 38,
      "rightModuleId": 40,
      "data": {
        "solostate": 0,
        "onstate": 1
      },
      "pos": [
        74,
        0
      ]
    },
    {
      "id": 40,
      "plugin": "cf",
      "version": "1.1.1",
      "model": "MASTER",
      "params": [
        {
          "id": 0,
          "value": 3.12000036
        },
        {
          "id": 1,
          "value": 0.0
        }
      ],
      "leftModuleId": 39,
      "data": {
        "onstate": 1
      },
      "pos": [
        80,
        0
      ]
    },
    {
      "id": 42,
      "plugin": "cf",
      "version": "1.1.1",
      "model": "MASTER",
      "params": [
        {
          "id": 0,
          "value": 0.0
        },
        {
          "id": 1,
          "value": 0.0
        }
      ],
      "rightModuleId": 66,
      "data": {
        "onstate": 1
      },
      "pos": [
        98,
        0
      ]
    },
    {
      "id": 43,
      "plugin": "Fundamental",
      "version": "1.4.0",
      "model": "Scope",
      "params": [
        {
          "id": 0,
          "value": 0.0
        },
        {
          "id": 1,
          "value": 1.74000001
        },
        {
          "id": 2,
          "value": 0.0
        },
        {
          "id": 3,
          "value": -10.0
        },
        {
          "id": 4,
          "value": 6.7850008
        },
        {
          "id": 5,
          "value": 0.0
        },
        {
          "id": 6,
          "value": -1.86000037
        },
        {
          "id": 7,
          "value": 0.0
        }
      ],
      "rightModuleId": 67,
      "data": {
        "lissajous": 0,
        "external": 0
      },
      "pos": [
        20,
        1
      ]
    },
    {
      "id": 45,
      "plugin": "Bogaudio",
      "version": "1.1.26",
      "model": "Bogaudio-FMOp",
      "params": [
        {
          "id": 0,
          "value": 0.0450000204
        },
        {
          "id": 1,
          "value": 0.0
        },
        {
          "id": 2,
          "value": 0.141421005
        },
        {
          "id": 3,
          "value": 0.316229999
        },
        {
          "id": 4,
          "value": 1.0
        },
        {
          "id": 5,
          "value": 0.316229999
        },
        {
          "id": 6,
          "value": 0.0
        },
        {
          "id": 7,
          "value": 0.0
        },
        {
          "id": 8,
          "value": 1.0
        },
        {
          "id": 9,
          "value": 0.0
        },
        {
          "id": 10,
          "value": 0.0
        },
        {
          "id": 11,
          "value": 0.0
        }
      ],
      "rightModuleId": 46,
      "data": {
        "linearLevel": false
      },
      "pos": [
        44,
        1
      ]
    },
    {
      "id": 46,
      "plugin": "Bogaudio",
      "version": "1.1.26",
      "model": "Bogaudio-FMOp",
      "params": [
        {
          "id": 0,
          "value": -0.252000093
        },
        {
          "id": 1,
          "value": 0.0
        },
        {
          "id": 2,
          "value": 0.184920996
        },
        {
          "id": 3,
          "value": 0.343230009
        },
        {
          "id": 4,
          "value": 0.99849999
        },
        {
          "id": 5,
          "value": 0.316229999
        },
        {
          "id": 6,
          "value": 0.0720000267
        },
        {
          "id": 7,
          "value": 0.0
        },
        {
          "id": 8,
          "value": 0.401500106
        },
        {
          "id": 9,
          "value": 0.0
        },
        {
          "id": 10,
          "value": 0.0
        },
        {
          "id": 11,
          "value": 0.0
        }
      ],
      "leftModuleId": 45,
      "data": {
        "linearLevel": false
      },
      "pos": [
        54,
        1
      ]
    },
    {
      "id": 47,
      "plugin": "StellareModular",
      "version": "1.0.0",
      "model": "TuringMachine",
      "params": [
        {
          "id": 0,
          "value": 0.236000001
        },
        {
          "id": 1,
          "value": 0.562999964
        },
        {
          "id": 2,
          "value": 0.187999949
        },
        {
          "id": 3,
          "value": 0.0469999798
        },
        {
          "id": 4,
          "value": 0.0274998881
        },
        {
          "id": 5,
          "value": 0.331999779
        },
        {
          "id": 6,
          "value": 5.0
        },
        {
          "id": 7,
          "value": 0.386999965
        },
        {
          "id": 8,
          "value": 0.0
        },
        {
          "id": 9,
          "value": 0.0
        },
        {
          "id": 10,
          "value": 0.0
        },
        {
          "id": 11,
          "value": 0.0
        },
        {
          "id": 12,
          "value": 0.0
        }
      ],
      "rightModuleId": 55,
      "data": {
        "pulses_mode": 0
      },
      "pos": [
        26,
        0
      ]
    },
    {
      "id": 48,
      "plugin": "Bogaudio",
      "version": "1.1.26",
      "model": "Bogaudio-Mult",
      "params": [],
      "leftModuleId": 73,
      "pos": [
        22,
        0
      ]
    },
    {
      "id": 50,
      "plugin": "Bogaudio",
      "version": "1.1.26",
      "model": "Bogaudio-Mult",
      "params": [],
      "pos": [
        51,
        0
      ]
    },
    {
      "id": 55,
      "plugin": "Bogaudio",
      "version": "1.1.26",
      "model": "Bogaudio-Noise",
      "params": [],
      "leftModuleId": 47,
      "data": {
        "noise_channels": 1
      },
      "pos": [
        44,
        0
      ]
    },
    {
      "id": 60,
      "plugin": "Core",
      "version": "1.1.6",
      "model": "AudioInterface",
      "params": [],
      "leftModuleId": 66,
      "rightModuleId": 22,
      "data": {
        "audio": {
          "driver": 6,
          "deviceName": "Speakers (Realtek(R) Audio)",
          "offset": 0,
          "maxChannels": 8,
          "sampleRate": 44100,
          "blockSize": 256
        }
      },
      "pos": [
        114,
        0
      ]
    },
    {
      "id": 64,
      "plugin": "Fundamental",
      "version": "1.4.0",
      "model": "VCA-1",
      "params": [
        {
          "id": 0,
          "value": 1.0
        },
        {
          "id": 1,
          "value": 1.0
        }
      ],
      "leftModuleId": 69,
      "pos": [
        81,
        1
      ]
    },
    {
      "id": 66,
      "plugin": "Fundamental",
      "version": "1.4.0",
      "model": "VCMixer",
      "params": [
        {
          "id": 0,
          "value": 1.0
        },
        {
          "id": 1,
          "value": 1.0
        },
        {
          "id": 2,
          "value": 1.0
        },
        {
          "id": 3,
          "value": 1.0
        },
        {
          "id": 4,
          "value": 1.0
        }
      ],
      "leftModuleId": 42,
      "rightModuleId": 60,
      "pos": [
        104,
        0
      ]
    },
    {
      "id": 67,
      "plugin": "Fundamental",
      "version": "1.4.0",
      "model": "VCO",
      "params": [
        {
          "id": 0,
          "value": 0.0
        },
        {
          "id": 1,
          "value": 0.0
        },
        {
          "id": 2,
          "value": 25.7039928
        },
        {
          "id": 3,
          "value": 0.306000024
        },
        {
          "id": 4,
          "value": 0.377999961
        },
        {
          "id": 5,
          "value": 0.5
        },
        {
          "id": 6,
          "value": 0.439500034
        }
      ],
      "leftModuleId": 43,
      "pos": [
        33,
        1
      ]
    },
    {
      "id": 68,
      "plugin": "Fundamental",
      "version": "1.4.0",
      "model": "VCF",
      "params": [
        {
          "id": 0,
          "value": 0.845499992
        },
        {
          "id": 1,
          "value": 1.0
        },
        {
          "id": 2,
          "value": 0.361500025
        },
        {
          "id": 3,
          "value": 0.0279999692
        },
        {
          "id": 4,
          "value": 0.42749998
        }
      ],
      "pos": [
        94,
        1
      ]
    },
    {
      "id": 69,
      "plugin": "Fundamental",
      "version": "1.4.0",
      "model": "VCO",
      "params": [
        {
          "id": 0,
          "value": 1.0
        },
        {
          "id": 1,
          "value": 0.0
        },
        {
          "id": 2,
          "value": -10.6379976
        },
        {
          "id": 3,
          "value": -1.0
        },
        {
          "id": 4,
          "value": 0.630000055
        },
        {
          "id": 5,
          "value": 0.845450282
        },
        {
          "id": 6,
          "value": 0.980999827
        }
      ],
      "rightModuleId": 64,
      "pos": [
        71,
        1
      ]
    },
    {
      "id": 73,
      "plugin": "Fundamental",
      "version": "1.4.0",
      "model": "SEQ3",
      "params": [
        {
          "id": 0,
          "value": 2.07200384
        },
        {
          "id": 1,
          "value": 0.0
        },
        {
          "id": 2,
          "value": 0.0
        },
        {
          "id": 3,
          "value": 5.0
        },
        {
          "id": 4,
          "value": 4.15000153
        },
        {
          "id": 5,
          "value": 0.0
        },
        {
          "id": 6,
          "value": 0.0
        },
        {
          "id": 7,
          "value": 0.0
        },
        {
          "id": 8,
          "value": 0.0
        },
        {
          "id": 9,
          "value": 0.0
        },
        {
          "id": 10,
          "value": 0.0
        },
        {
          "id": 11,
          "value": 0.0
        },
        {
          "id": 12,
          "value": 0.0
        },
        {
          "id": 13,
          "value": 0.0
        },
        {
          "id": 14,
          "value": 0.0
        },
        {
          "id": 15,
          "value": 0.0
        },
        {
          "id": 16,
          "value": 0.0
        },
        {
          "id": 17,
          "value": 0.0
        },
        {
          "id": 18,
          "value": 0.0
        },
        {
          "id": 19,
          "value": 0.0
        },
        {
          "id": 20,
          "value": 1.04999995
        },
        {
          "id": 21,
          "value": 0.0
        },
        {
          "id": 22,
          "value": 0.0
        },
        {
          "id": 23,
          "value": 0.0
        },
        {
          "id": 24,
          "value": 0.0
        },
        {
          "id": 25,
          "value": 0.0
        },
        {
          "id": 26,
          "value": 0.0
        },
        {
          "id": 27,
          "value": 0.0
        },
        {
          "id": 28,
          "value": 0.0
        },
        {
          "id": 29,
          "value": 0.0
        },
        {
          "id": 30,
          "value": 0.0
        },
        {
          "id": 31,
          "value": 0.0
        },
        {
          "id": 32,
          "value": 0.0
        },
        {
          "id": 33,
          "value": 0.0
        },
        {
          "id": 34,
          "value": 0.0
        },
        {
          "id": 35,
          "value": 0.0
        }
      ],
      "rightModuleId": 48,
      "data": {
        "running": false,
        "gates": [
          1,
          1,
          1,
          1,
          1,
          1,
          1,
          1
        ]
      },
      "pos": [
        0,
        0
      ]
    },
    {
      "id": 75,
      "plugin": "Befaco",
      "version": "1.0.0",
      "model": "SpringReverb",
      "params": [
        {
          "id": 0,
          "value": 0.391500056
        },
        {
          "id": 1,
          "value": 0.84900105
        },
        {
          "id": 2,
          "value": 1.0
        },
        {
          "id": 3,
          "value": 0.427500755
        }
      ],
      "pos": [
        88,
        0
      ]
    }
  ],
  "cables": [
    {
      "id": 393,
      "outputModuleId": 37,
      "outputId": 1,
      "inputModuleId": 38,
      "inputId": 5,
      "color": "#c9b70e"
    },
    {
      "id": 394,
      "outputModuleId": 37,
      "outputId": 2,
      "inputModuleId": 38,
      "inputId": 6,
      "color": "#0c8e15"
    },
    {
      "id": 395,
      "outputModuleId": 38,
      "outputId": 1,
      "inputModuleId": 39,
      "inputId": 5,
      "color": "#c91847"
    },
    {
      "id": 396,
      "outputModuleId": 38,
      "outputId": 2,
      "inputModuleId": 39,
      "inputId": 6,
      "color": "#0986ad"
    },
    {
      "id": 397,
      "outputModuleId": 39,
      "outputId": 1,
      "inputModuleId": 40,
      "inputId": 2,
      "color": "#c9b70e"
    },
    {
      "id": 398,
      "outputModuleId": 39,
      "outputId": 2,
      "inputModuleId": 40,
      "inputId": 3,
      "color": "#0c8e15"
    },
    {
      "id": 409,
      "outputModuleId": 48,
      "outputId": 0,
      "inputModuleId": 35,
      "inputId": 11,
      "color": "#0986ad"
    },
    {
      "id": 419,
      "outputModuleId": 48,
      "outputId": 1,
      "inputModuleId": 35,
      "inputId": 10,
      "color": "#c91847"
    },
    {
      "id": 418,
      "outputModuleId": 35,
      "outputId": 4,
      "inputModuleId": 46,
      "inputId": 2,
      "color": "#0c8e15"
    },
    {
      "id": 426,
      "outputModuleId": 55,
      "outputId": 4,
      "inputModuleId": 46,
      "inputId": 4,
      "color": "#0c8e15"
    },
    {
      "id": 422,
      "outputModuleId": 46,
      "outputId": 0,
      "inputModuleId": 39,
      "inputId": 9,
      "color": "#0c8e15"
    },
    {
      "id": 439,
      "outputModuleId": 48,
      "outputId": 2,
      "inputModuleId": 35,
      "inputId": 9,
      "color": "#c9b70e"
    },
    {
      "id": 442,
      "outputModuleId": 48,
      "outputId": 3,
      "inputModuleId": 35,
      "inputId": 8,
      "color": "#0986ad"
    },
    {
      "id": 445,
      "outputModuleId": 64,
      "outputId": 0,
      "inputModuleId": 37,
      "inputId": 8,
      "color": "#0986ad"
    },
    {
      "id": 441,
      "outputModuleId": 35,
      "outputId": 2,
      "inputModuleId": 64,
      "inputId": 0,
      "color": "#c91847"
    },
    {
      "id": 446,
      "outputModuleId": 50,
      "outputId": 1,
      "inputModuleId": 55,
      "inputId": 0,
      "color": "#0c8e15"
    },
    {
      "id": 450,
      "outputModuleId": 35,
      "outputId": 0,
      "inputModuleId": 35,
      "inputId": 1,
      "color": "#c91847"
    },
    {
      "id": 452,
      "outputModuleId": 48,
      "outputId": 4,
      "inputModuleId": 35,
      "inputId": 7,
      "color": "#c9b70e"
    },
    {
      "id": 453,
      "outputModuleId": 47,
      "outputId": 0,
      "inputModuleId": 35,
      "inputId": 6,
      "color": "#0986ad"
    },
    {
      "id": 455,
      "outputModuleId": 47,
      "outputId": 6,
      "inputModuleId": 35,
      "inputId": 4,
      "color": "#0c8e15"
    },
    {
      "id": 454,
      "outputModuleId": 47,
      "outputId": 9,
      "inputModuleId": 35,
      "inputId": 3,
      "color": "#c9b70e"
    },
    {
      "id": 447,
      "outputModuleId": 42,
      "outputId": 2,
      "inputModuleId": 66,
      "inputId": 1,
      "color": "#c91847"
    },
    {
      "id": 448,
      "outputModuleId": 42,
      "outputId": 3,
      "inputModuleId": 66,
      "inputId": 2,
      "color": "#0986ad"
    },
    {
      "id": 460,
      "outputModuleId": 66,
      "outputId": 1,
      "inputModuleId": 22,
      "inputId": 2,
      "color": "#0c8e15"
    },
    {
      "id": 461,
      "outputModuleId": 66,
      "outputId": 2,
      "inputModuleId": 22,
      "inputId": 3,
      "color": "#c91847"
    },
    {
      "id": 462,
      "outputModuleId": 66,
      "outputId": 0,
      "inputModuleId": 60,
      "inputId": 0,
      "color": "#c9b70e"
    },
    {
      "id": 463,
      "outputModuleId": 66,
      "outputId": 0,
      "inputModuleId": 60,
      "inputId": 1,
      "color": "#c91847"
    },
    {
      "id": 437,
      "outputModuleId": 68,
      "outputId": 0,
      "inputModuleId": 38,
      "inputId": 8,
      "color": "#c91847"
    },
    {
      "id": 434,
      "outputModuleId": 47,
      "outputId": 12,
      "inputModuleId": 68,
      "inputId": 3,
      "color": "#0986ad"
    },
    {
      "id": 438,
      "outputModuleId": 35,
      "outputId": 3,
      "inputModuleId": 68,
      "inputId": 2,
      "color": "#0986ad"
    },
    {
      "id": 451,
      "outputModuleId": 35,
      "outputId": 1,
      "inputModuleId": 69,
      "inputId": 3,
      "color": "#0986ad"
    },
    {
      "id": 444,
      "outputModuleId": 69,
      "outputId": 3,
      "inputModuleId": 64,
      "inputId": 1,
      "color": "#c91847"
    },
    {
      "id": 443,
      "outputModuleId": 50,
      "outputId": 2,
      "inputModuleId": 69,
      "inputId": 0,
      "color": "#0c8e15"
    },
    {
      "id": 457,
      "outputModuleId": 67,
      "outputId": 0,
      "inputModuleId": 35,
      "inputId": 2,
      "color": "#0986ad"
    },
    {
      "id": 456,
      "outputModuleId": 67,
      "outputId": 2,
      "inputModuleId": 35,
      "inputId": 5,
      "color": "#c91847"
    },
    {
      "id": 421,
      "outputModuleId": 45,
      "outputId": 0,
      "inputModuleId": 39,
      "inputId": 8,
      "color": "#c9b70e"
    },
    {
      "id": 413,
      "outputModuleId": 50,
      "outputId": 0,
      "inputModuleId": 45,
      "inputId": 4,
      "color": "#0986ad"
    },
    {
      "id": 420,
      "outputModuleId": 35,
      "outputId": 5,
      "inputModuleId": 45,
      "inputId": 2,
      "color": "#0986ad"
    },
    {
      "id": 411,
      "outputModuleId": 47,
      "outputId": 14,
      "inputModuleId": 50,
      "inputId": 0,
      "color": "#0c8e15"
    },
    {
      "id": 408,
      "outputModuleId": 73,
      "outputId": 0,
      "inputModuleId": 48,
      "inputId": 0,
      "color": "#c91847"
    },
    {
      "id": 410,
      "outputModuleId": 73,
      "outputId": 4,
      "inputModuleId": 47,
      "inputId": 0,
      "color": "#c9b70e"
    },
    {
      "id": 458,
      "outputModuleId": 73,
      "outputId": 6,
      "inputModuleId": 35,
      "inputId": 0,
      "color": "#c91847"
    },
    {
      "id": 464,
      "outputModuleId": 73,
      "outputId": 1,
      "inputModuleId": 47,
      "inputId": 1,
      "color": "#c91847"
    },
    {
      "id": 402,
      "outputModuleId": 75,
      "outputId": 1,
      "inputModuleId": 42,
      "inputId": 3,
      "color": "#0c8e15"
    },
    {
      "id": 467,
      "outputModuleId": 69,
      "outputId": 0,
      "inputModuleId": 75,
      "inputId": 0,
      "color": "#0c8e15"
    },
    {
      "id": 399,
      "outputModuleId": 40,
      "outputId": 2,
      "inputModuleId": 75,
      "inputId": 2,
      "color": "#c91847"
    },
    {
      "id": 400,
      "outputModuleId": 40,
      "outputId": 3,
      "inputModuleId": 75,
      "inputId": 3,
      "color": "#0986ad"
    }
  ]
}