{
  "version": "1.1.6",
  "modules": [
    {
      "id": 22,
      "plugin": "VCV-Recorder",
      "version": "1.0.1",
      "model": "Recorder",
      "params": [
        {
          "id": 0,
          "value": 0.987000167
        },
        {
          "id": 1,
          "value": 0.0
        }
      ],
      "leftModuleId": 98,
      "rightModuleId": 60,
      "data": {
        "format": "wav",
        "path": "F:\\Dropbox\\Grad-School\\YorkU\\VSL\\gitshow11/recording.wav",
        "incrementPath": false,
        "sampleRate": 44100,
        "depth": 24,
        "bitRate": 320000
      },
      "pos": [
        138,
        2
      ]
    },
    {
      "id": 35,
      "plugin": "AudibleInstruments",
      "version": "1.0.0",
      "model": "Stages",
      "params": [
        {
          "id": 0,
          "value": 0.5
        },
        {
          "id": 1,
          "value": 0.5
        },
        {
          "id": 2,
          "value": 0.502999961
        },
        {
          "id": 3,
          "value": 0.239000022
        },
        {
          "id": 4,
          "value": 0.0275001172
        },
        {
          "id": 5,
          "value": 0.543499708
        },
        {
          "id": 6,
          "value": 0.0
        },
        {
          "id": 7,
          "value": 0.0
        },
        {
          "id": 8,
          "value": 0.0
        },
        {
          "id": 9,
          "value": 0.0
        },
        {
          "id": 10,
          "value": 0.0
        },
        {
          "id": 11,
          "value": 0.0
        },
        {
          "id": 12,
          "value": 0.577000022
        },
        {
          "id": 13,
          "value": 0.250999987
        },
        {
          "id": 14,
          "value": 0.572000206
        },
        {
          "id": 15,
          "value": 0.276000202
        },
        {
          "id": 16,
          "value": 0.386999995
        },
        {
          "id": 17,
          "value": 0.68599993
        }
      ],
      "leftModuleId": 67,
      "rightModuleId": 43,
      "data": {
        "configurations": [
          {
            "type": 0,
            "loop": false
          },
          {
            "type": 0,
            "loop": false
          },
          {
            "type": 0,
            "loop": false
          },
          {
            "type": 0,
            "loop": false
          },
          {
            "type": 0,
            "loop": false
          },
          {
            "type": 0,
            "loop": false
          }
        ]
      },
      "pos": [
        12,
        3
      ]
    },
    {
      "id": 38,
      "plugin": "cf",
      "version": "1.1.1",
      "model": "MONO",
      "params": [
        {
          "id": 0,
          "value": 0.0
        },
        {
          "id": 1,
          "value": 3.48999906
        },
        {
          "id": 2,
          "value": 0.0
        },
        {
          "id": 3,
          "value": 0.0
        }
      ],
      "leftModuleId": 68,
      "rightModuleId": 39,
      "data": {
        "solostate": 0,
        "onstate": 1
      },
      "pos": [
        75,
        2
      ]
    },
    {
      "id": 39,
      "plugin": "cf",
      "version": "1.1.1",
      "model": "STEREO",
      "params": [
        {
          "id": 0,
          "value": 0.0
        },
        {
          "id": 1,
          "value": 0.0
        },
        {
          "id": 2,
          "value": 0.0
        },
        {
          "id": 3,
          "value": 0.0
        }
      ],
      "leftModuleId": 38,
      "rightModuleId": 40,
      "data": {
        "solostate": 0,
        "onstate": 1
      },
      "pos": [
        81,
        2
      ]
    },
    {
      "id": 40,
      "plugin": "cf",
      "version": "1.1.1",
      "model": "MASTER",
      "params": [
        {
          "id": 0,
          "value": 3.12000036
        },
        {
          "id": 1,
          "value": 0.0
        }
      ],
      "leftModuleId": 39,
      "rightModuleId": 79,
      "data": {
        "onstate": 1
      },
      "pos": [
        87,
        2
      ]
    },
    {
      "id": 43,
      "plugin": "Fundamental",
      "version": "1.4.0",
      "model": "Scope",
      "params": [
        {
          "id": 0,
          "value": 0.0
        },
        {
          "id": 1,
          "value": 1.74000001
        },
        {
          "id": 2,
          "value": 0.0
        },
        {
          "id": 3,
          "value": -10.0
        },
        {
          "id": 4,
          "value": 6.7850008
        },
        {
          "id": 5,
          "value": 0.0
        },
        {
          "id": 6,
          "value": -1.86000037
        },
        {
          "id": 7,
          "value": 0.0
        }
      ],
      "leftModuleId": 35,
      "rightModuleId": 45,
      "data": {
        "lissajous": 0,
        "external": 0
      },
      "pos": [
        26,
        3
      ]
    },
    {
      "id": 45,
      "plugin": "Bogaudio",
      "version": "1.1.26",
      "model": "Bogaudio-FMOp",
      "params": [
        {
          "id": 0,
          "value": 0.0450000204
        },
        {
          "id": 1,
          "value": 0.0
        },
        {
          "id": 2,
          "value": 0.141421005
        },
        {
          "id": 3,
          "value": 0.316229999
        },
        {
          "id": 4,
          "value": 1.0
        },
        {
          "id": 5,
          "value": 0.316229999
        },
        {
          "id": 6,
          "value": 0.0
        },
        {
          "id": 7,
          "value": 0.0
        },
        {
          "id": 8,
          "value": 1.0
        },
        {
          "id": 9,
          "value": 0.0
        },
        {
          "id": 10,
          "value": 0.0
        },
        {
          "id": 11,
          "value": 0.0
        }
      ],
      "leftModuleId": 43,
      "rightModuleId": 46,
      "data": {
        "linearLevel": false
      },
      "pos": [
        39,
        3
      ]
    },
    {
      "id": 46,
      "plugin": "Bogaudio",
      "version": "1.1.26",
      "model": "Bogaudio-FMOp",
      "params": [
        {
          "id": 0,
          "value": -0.252000093
        },
        {
          "id": 1,
          "value": 0.0
        },
        {
          "id": 2,
          "value": 0.184920996
        },
        {
          "id": 3,
          "value": 0.343230009
        },
        {
          "id": 4,
          "value": 0.99849999
        },
        {
          "id": 5,
          "value": 0.316229999
        },
        {
          "id": 6,
          "value": 0.0720000267
        },
        {
          "id": 7,
          "value": 0.0
        },
        {
          "id": 8,
          "value": 0.401500106
        },
        {
          "id": 9,
          "value": 0.0
        },
        {
          "id": 10,
          "value": 0.0
        },
        {
          "id": 11,
          "value": 0.0
        }
      ],
      "leftModuleId": 45,
      "rightModuleId": 69,
      "data": {
        "linearLevel": false
      },
      "pos": [
        49,
        3
      ]
    },
    {
      "id": 47,
      "plugin": "StellareModular",
      "version": "1.0.0",
      "model": "TuringMachine",
      "params": [
        {
          "id": 0,
          "value": 0.236000001
        },
        {
          "id": 1,
          "value": 0.562999964
        },
        {
          "id": 2,
          "value": 0.187999949
        },
        {
          "id": 3,
          "value": 0.0469999798
        },
        {
          "id": 4,
          "value": 0.0274998881
        },
        {
          "id": 5,
          "value": 0.331999779
        },
        {
          "id": 6,
          "value": 5.0
        },
        {
          "id": 7,
          "value": 0.386999965
        },
        {
          "id": 8,
          "value": 0.0
        },
        {
          "id": 9,
          "value": 0.0
        },
        {
          "id": 10,
          "value": 0.0
        },
        {
          "id": 11,
          "value": 0.0
        },
        {
          "id": 12,
          "value": 0.0
        }
      ],
      "leftModuleId": 48,
      "rightModuleId": 55,
      "data": {
        "pulses_mode": 0
      },
      "pos": [
        27,
        2
      ]
    },
    {
      "id": 48,
      "plugin": "Bogaudio",
      "version": "1.1.26",
      "model": "Bogaudio-Mult",
      "params": [],
      "leftModuleId": 73,
      "rightModuleId": 47,
      "pos": [
        24,
        2
      ]
    },
    {
      "id": 50,
      "plugin": "Bogaudio",
      "version": "1.1.26",
      "model": "Bogaudio-Mult",
      "params": [],
      "leftModuleId": 55,
      "rightModuleId": 82,
      "pos": [
        48,
        2
      ]
    },
    {
      "id": 55,
      "plugin": "Bogaudio",
      "version": "1.1.26",
      "model": "Bogaudio-Noise",
      "params": [],
      "leftModuleId": 47,
      "rightModuleId": 50,
      "data": {
        "noise_channels": 1
      },
      "pos": [
        45,
        2
      ]
    },
    {
      "id": 60,
      "plugin": "Core",
      "version": "1.1.6",
      "model": "AudioInterface",
      "params": [],
      "leftModuleId": 22,
      "data": {
        "audio": {
          "driver": 8,
          "deviceName": "Speakers (2- USB Audio CODEC )",
          "offset": 0,
          "maxChannels": 8,
          "sampleRate": 44100,
          "blockSize": 256
        }
      },
      "pos": [
        143,
        2
      ]
    },
    {
      "id": 67,
      "plugin": "Fundamental",
      "version": "1.4.0",
      "model": "VCO",
      "params": [
        {
          "id": 0,
          "value": 0.0
        },
        {
          "id": 1,
          "value": 0.0
        },
        {
          "id": 2,
          "value": -32.1300125
        },
        {
          "id": 3,
          "value": 0.306000024
        },
        {
          "id": 4,
          "value": 0.377999961
        },
        {
          "id": 5,
          "value": 0.5
        },
        {
          "id": 6,
          "value": 0.439500034
        }
      ],
      "rightModuleId": 35,
      "pos": [
        2,
        3
      ]
    },
    {
      "id": 68,
      "plugin": "Fundamental",
      "version": "1.4.0",
      "model": "VCF",
      "params": [
        {
          "id": 0,
          "value": 0.719499707
        },
        {
          "id": 1,
          "value": 1.0
        },
        {
          "id": 2,
          "value": 0.710501373
        },
        {
          "id": 3,
          "value": 0.0279999692
        },
        {
          "id": 4,
          "value": 0.384000003
        }
      ],
      "leftModuleId": 84,
      "rightModuleId": 38,
      "pos": [
        67,
        2
      ]
    },
    {
      "id": 69,
      "plugin": "Fundamental",
      "version": "1.4.0",
      "model": "VCO",
      "params": [
        {
          "id": 0,
          "value": 1.0
        },
        {
          "id": 1,
          "value": 0.0
        },
        {
          "id": 2,
          "value": 3.29400349
        },
        {
          "id": 3,
          "value": -1.0
        },
        {
          "id": 4,
          "value": 0.630000055
        },
        {
          "id": 5,
          "value": 0.845450282
        },
        {
          "id": 6,
          "value": 0.980999827
        }
      ],
      "leftModuleId": 46,
      "pos": [
        59,
        3
      ]
    },
    {
      "id": 73,
      "plugin": "Fundamental",
      "version": "1.4.0",
      "model": "SEQ3",
      "params": [
        {
          "id": 0,
          "value": 3.3680048
        },
        {
          "id": 1,
          "value": 0.0
        },
        {
          "id": 2,
          "value": 0.0
        },
        {
          "id": 3,
          "value": 5.0
        },
        {
          "id": 4,
          "value": 4.15000153
        },
        {
          "id": 5,
          "value": 0.0
        },
        {
          "id": 6,
          "value": 0.0
        },
        {
          "id": 7,
          "value": 0.0
        },
        {
          "id": 8,
          "value": 0.0
        },
        {
          "id": 9,
          "value": 0.0
        },
        {
          "id": 10,
          "value": 0.0
        },
        {
          "id": 11,
          "value": 0.0
        },
        {
          "id": 12,
          "value": 0.0
        },
        {
          "id": 13,
          "value": 0.0
        },
        {
          "id": 14,
          "value": 0.0
        },
        {
          "id": 15,
          "value": 0.0
        },
        {
          "id": 16,
          "value": 0.0
        },
        {
          "id": 17,
          "value": 0.0
        },
        {
          "id": 18,
          "value": 0.0
        },
        {
          "id": 19,
          "value": 0.0
        },
        {
          "id": 20,
          "value": 1.04999995
        },
        {
          "id": 21,
          "value": 0.0
        },
        {
          "id": 22,
          "value": 0.0
        },
        {
          "id": 23,
          "value": 0.0
        },
        {
          "id": 24,
          "value": 0.0
        },
        {
          "id": 25,
          "value": 0.0
        },
        {
          "id": 26,
          "value": 0.0
        },
        {
          "id": 27,
          "value": 0.0
        },
        {
          "id": 28,
          "value": 0.0
        },
        {
          "id": 29,
          "value": 0.0
        },
        {
          "id": 30,
          "value": 0.0
        },
        {
          "id": 31,
          "value": 0.0
        },
        {
          "id": 32,
          "value": 0.0
        },
        {
          "id": 33,
          "value": 0.0
        },
        {
          "id": 34,
          "value": 0.0
        },
        {
          "id": 35,
          "value": 0.0
        }
      ],
      "rightModuleId": 48,
      "data": {
        "running": true,
        "gates": [
          1,
          1,
          1,
          1,
          1,
          1,
          1,
          1
        ]
      },
      "pos": [
        2,
        2
      ]
    },
    {
      "id": 79,
      "plugin": "AS",
      "version": "1.0.3",
      "model": "DelayPlusStereoFx",
      "params": [
        {
          "id": 0,
          "value": 0.494999379
        },
        {
          "id": 1,
          "value": 0.801999867
        },
        {
          "id": 2,
          "value": 0.5
        },
        {
          "id": 3,
          "value": 0.225000009
        },
        {
          "id": 4,
          "value": 0.799000144
        },
        {
          "id": 5,
          "value": 0.5
        },
        {
          "id": 6,
          "value": 0.0
        },
        {
          "id": 7,
          "value": 0.0
        },
        {
          "id": 8,
          "value": 0.503499866
        },
        {
          "id": 9,
          "value": 0.0
        }
      ],
      "leftModuleId": 40,
      "rightModuleId": 81,
      "data": {
        "as_FxBypass": [
          false
        ]
      },
      "pos": [
        93,
        2
      ]
    },
    {
      "id": 81,
      "plugin": "AS",
      "version": "1.0.3",
      "model": "ReverbStereoFx",
      "params": [
        {
          "id": 0,
          "value": 0.809500992
        },
        {
          "id": 1,
          "value": 1.0
        },
        {
          "id": 2,
          "value": 0.5
        },
        {
          "id": 3,
          "value": 0.0
        }
      ],
      "leftModuleId": 79,
      "rightModuleId": 98,
      "data": {
        "as_FxBypass": [
          false
        ]
      },
      "pos": [
        105,
        2
      ]
    },
    {
      "id": 82,
      "plugin": "Fundamental",
      "version": "1.4.0",
      "model": "VCO",
      "params": [
        {
          "id": 0,
          "value": 1.0
        },
        {
          "id": 1,
          "value": 1.0
        },
        {
          "id": 2,
          "value": 21.7080021
        },
        {
          "id": 3,
          "value": 0.0
        },
        {
          "id": 4,
          "value": 0.0
        },
        {
          "id": 5,
          "value": 0.5
        },
        {
          "id": 6,
          "value": 0.0
        }
      ],
      "leftModuleId": 50,
      "rightModuleId": 83,
      "pos": [
        51,
        2
      ]
    },
    {
      "id": 83,
      "plugin": "Fundamental",
      "version": "1.4.0",
      "model": "VCA-1",
      "params": [
        {
          "id": 0,
          "value": 1.0
        },
        {
          "id": 1,
          "value": 1.0
        }
      ],
      "leftModuleId": 82,
      "rightModuleId": 84,
      "pos": [
        61,
        2
      ]
    },
    {
      "id": 84,
      "plugin": "Bogaudio",
      "version": "1.1.26",
      "model": "Bogaudio-Slew",
      "params": [
        {
          "id": 0,
          "value": 0.536730468
        },
        {
          "id": 1,
          "value": 0.369000018
        },
        {
          "id": 2,
          "value": 0.536729991
        },
        {
          "id": 3,
          "value": -0.48300004
        }
      ],
      "leftModuleId": 83,
      "rightModuleId": 68,
      "pos": [
        64,
        2
      ]
    },
    {
      "id": 87,
      "plugin": "Fundamental",
      "version": "1.4.0",
      "model": "VCO",
      "params": [
        {
          "id": 0,
          "value": 1.0
        },
        {
          "id": 1,
          "value": 1.0
        },
        {
          "id": 2,
          "value": -26.2979507
        },
        {
          "id": 3,
          "value": 0.0
        },
        {
          "id": 4,
          "value": 0.0
        },
        {
          "id": 5,
          "value": 0.5
        },
        {
          "id": 6,
          "value": 0.0
        }
      ],
      "leftModuleId": 116,
      "rightModuleId": 90,
      "pos": [
        18,
        1
      ]
    },
    {
      "id": 89,
      "plugin": "Fundamental",
      "version": "1.4.0",
      "model": "VCO",
      "params": [
        {
          "id": 0,
          "value": 1.0
        },
        {
          "id": 1,
          "value": 1.0
        },
        {
          "id": 2,
          "value": -16.2540035
        },
        {
          "id": 3,
          "value": 0.0
        },
        {
          "id": 4,
          "value": 0.0
        },
        {
          "id": 5,
          "value": 0.78714031
        },
        {
          "id": 6,
          "value": 0.0
        }
      ],
      "leftModuleId": 91,
      "rightModuleId": 104,
      "pos": [
        48,
        1
      ]
    },
    {
      "id": 90,
      "plugin": "Fundamental",
      "version": "1.4.0",
      "model": "VCO",
      "params": [
        {
          "id": 0,
          "value": 1.0
        },
        {
          "id": 1,
          "value": 1.0
        },
        {
          "id": 2,
          "value": -31.1040497
        },
        {
          "id": 3,
          "value": 0.66899997
        },
        {
          "id": 4,
          "value": 0.0
        },
        {
          "id": 5,
          "value": 0.5
        },
        {
          "id": 6,
          "value": 0.0
        }
      ],
      "leftModuleId": 87,
      "rightModuleId": 91,
      "pos": [
        28,
        1
      ]
    },
    {
      "id": 91,
      "plugin": "Fundamental",
      "version": "1.4.0",
      "model": "VCO",
      "params": [
        {
          "id": 0,
          "value": 1.0
        },
        {
          "id": 1,
          "value": 1.0
        },
        {
          "id": 2,
          "value": -18.3060169
        },
        {
          "id": 3,
          "value": 0.0
        },
        {
          "id": 4,
          "value": 0.0
        },
        {
          "id": 5,
          "value": 0.804290533
        },
        {
          "id": 6,
          "value": 0.0
        }
      ],
      "leftModuleId": 90,
      "rightModuleId": 89,
      "pos": [
        38,
        1
      ]
    },
    {
      "id": 98,
      "plugin": "Bogaudio",
      "version": "1.1.26",
      "model": "Bogaudio-Mix8",
      "params": [
        {
          "id": 0,
          "value": 0.909090936
        },
        {
          "id": 1,
          "value": 1.0
        },
        {
          "id": 2,
          "value": -1.0
        },
        {
          "id": 3,
          "value": 0.909090936
        },
        {
          "id": 4,
          "value": 1.0
        },
        {
          "id": 5,
          "value": 1.0
        },
        {
          "id": 6,
          "value": 0.909090936
        },
        {
          "id": 7,
          "value": 0.0
        },
        {
          "id": 8,
          "value": -1.0
        },
        {
          "id": 9,
          "value": 0.909090936
        },
        {
          "id": 10,
          "value": 0.0
        },
        {
          "id": 11,
          "value": 1.0
        },
        {
          "id": 12,
          "value": 0.909090936
        },
        {
          "id": 13,
          "value": 0.0
        },
        {
          "id": 14,
          "value": -1.0
        },
        {
          "id": 15,
          "value": 0.909090936
        },
        {
          "id": 16,
          "value": 0.0
        },
        {
          "id": 17,
          "value": 1.0
        },
        {
          "id": 18,
          "value": 0.717091084
        },
        {
          "id": 19,
          "value": 0.0
        },
        {
          "id": 20,
          "value": -1.0
        },
        {
          "id": 21,
          "value": 0.71259135
        },
        {
          "id": 22,
          "value": 0.0
        },
        {
          "id": 23,
          "value": 1.0
        },
        {
          "id": 24,
          "value": 0.909004629
        },
        {
          "id": 25,
          "value": 0.0
        }
      ],
      "leftModuleId": 81,
      "rightModuleId": 22,
      "data": {
        "poly_channel_offset": -1
      },
      "pos": [
        111,
        2
      ]
    },
    {
      "id": 100,
      "plugin": "Fundamental",
      "version": "1.4.0",
      "model": "VCO",
      "params": [
        {
          "id": 0,
          "value": 1.0
        },
        {
          "id": 1,
          "value": 1.0
        },
        {
          "id": 2,
          "value": -26.2979507
        },
        {
          "id": 3,
          "value": 0.0
        },
        {
          "id": 4,
          "value": 0.0
        },
        {
          "id": 5,
          "value": 0.5
        },
        {
          "id": 6,
          "value": 0.0
        }
      ],
      "rightModuleId": 101,
      "pos": [
        18,
        0
      ]
    },
    {
      "id": 101,
      "plugin": "Fundamental",
      "version": "1.4.0",
      "model": "VCO",
      "params": [
        {
          "id": 0,
          "value": 1.0
        },
        {
          "id": 1,
          "value": 1.0
        },
        {
          "id": 2,
          "value": -31.1040497
        },
        {
          "id": 3,
          "value": 0.66899997
        },
        {
          "id": 4,
          "value": 0.0
        },
        {
          "id": 5,
          "value": 0.5
        },
        {
          "id": 6,
          "value": 0.0
        }
      ],
      "leftModuleId": 100,
      "rightModuleId": 102,
      "pos": [
        28,
        0
      ]
    },
    {
      "id": 102,
      "plugin": "Fundamental",
      "version": "1.4.0",
      "model": "VCO",
      "params": [
        {
          "id": 0,
          "value": 1.0
        },
        {
          "id": 1,
          "value": 1.0
        },
        {
          "id": 2,
          "value": -18.3060169
        },
        {
          "id": 3,
          "value": 0.0
        },
        {
          "id": 4,
          "value": 0.0
        },
        {
          "id": 5,
          "value": 0.804290533
        },
        {
          "id": 6,
          "value": 0.0
        }
      ],
      "leftModuleId": 101,
      "rightModuleId": 103,
      "pos": [
        38,
        0
      ]
    },
    {
      "id": 103,
      "plugin": "Fundamental",
      "version": "1.4.0",
      "model": "VCO",
      "params": [
        {
          "id": 0,
          "value": 1.0
        },
        {
          "id": 1,
          "value": 1.0
        },
        {
          "id": 2,
          "value": -13.0680113
        },
        {
          "id": 3,
          "value": 0.0
        },
        {
          "id": 4,
          "value": 0.0
        },
        {
          "id": 5,
          "value": 0.78714031
        },
        {
          "id": 6,
          "value": 0.0
        }
      ],
      "leftModuleId": 102,
      "pos": [
        48,
        0
      ]
    },
    {
      "id": 104,
      "plugin": "Bogaudio",
      "version": "1.1.26",
      "model": "Bogaudio-Mix8",
      "params": [
        {
          "id": 0,
          "value": 0.909090936
        },
        {
          "id": 1,
          "value": 0.0
        },
        {
          "id": 2,
          "value": 0.0
        },
        {
          "id": 3,
          "value": 0.909090936
        },
        {
          "id": 4,
          "value": 0.0
        },
        {
          "id": 5,
          "value": 0.0
        },
        {
          "id": 6,
          "value": 0.909090936
        },
        {
          "id": 7,
          "value": 0.0
        },
        {
          "id": 8,
          "value": 0.0
        },
        {
          "id": 9,
          "value": 0.91509068
        },
        {
          "id": 10,
          "value": 0.0
        },
        {
          "id": 11,
          "value": 0.0
        },
        {
          "id": 12,
          "value": 0.909090936
        },
        {
          "id": 13,
          "value": 0.0
        },
        {
          "id": 14,
          "value": 0.0
        },
        {
          "id": 15,
          "value": 0.909090936
        },
        {
          "id": 16,
          "value": 0.0
        },
        {
          "id": 17,
          "value": 0.0
        },
        {
          "id": 18,
          "value": 0.909090936
        },
        {
          "id": 19,
          "value": 0.0
        },
        {
          "id": 20,
          "value": 0.0
        },
        {
          "id": 21,
          "value": 0.909090936
        },
        {
          "id": 22,
          "value": 0.0
        },
        {
          "id": 23,
          "value": 0.0
        },
        {
          "id": 24,
          "value": 0.709502041
        },
        {
          "id": 25,
          "value": 1.0
        }
      ],
      "leftModuleId": 89,
      "rightModuleId": 105,
      "data": {
        "poly_channel_offset": -1
      },
      "pos": [
        58,
        1
      ]
    },
    {
      "id": 105,
      "plugin": "Fundamental",
      "version": "1.4.0",
      "model": "VCF",
      "params": [
        {
          "id": 0,
          "value": 0.82149899
        },
        {
          "id": 1,
          "value": 0.5
        },
        {
          "id": 2,
          "value": 0.386999965
        },
        {
          "id": 3,
          "value": 0.276000142
        },
        {
          "id": 4,
          "value": 0.0
        }
      ],
      "leftModuleId": 104,
      "rightModuleId": 109,
      "pos": [
        85,
        1
      ]
    },
    {
      "id": 109,
      "plugin": "AS",
      "version": "1.0.3",
      "model": "DelayPlusStereoFx",
      "params": [
        {
          "id": 0,
          "value": 1.01999974
        },
        {
          "id": 1,
          "value": 0.844000399
        },
        {
          "id": 2,
          "value": 0.5
        },
        {
          "id": 3,
          "value": 0.509999871
        },
        {
          "id": 4,
          "value": 0.844000399
        },
        {
          "id": 5,
          "value": 0.5
        },
        {
          "id": 6,
          "value": 1.0
        },
        {
          "id": 7,
          "value": 0.0
        },
        {
          "id": 8,
          "value": 0.242499948
        },
        {
          "id": 9,
          "value": 0.0
        }
      ],
      "leftModuleId": 105,
      "rightModuleId": 143,
      "data": {
        "as_FxBypass": [
          false
        ]
      },
      "pos": [
        93,
        1
      ]
    },
    {
      "id": 116,
      "plugin": "Fundamental",
      "version": "1.4.0",
      "model": "8vert",
      "params": [
        {
          "id": 0,
          "value": 0.0240000058
        },
        {
          "id": 1,
          "value": -0.035999991
        },
        {
          "id": 2,
          "value": 0.0
        },
        {
          "id": 3,
          "value": 0.0
        },
        {
          "id": 4,
          "value": 0.0
        },
        {
          "id": 5,
          "value": 0.0
        },
        {
          "id": 6,
          "value": 0.0
        },
        {
          "id": 7,
          "value": 0.0
        }
      ],
      "leftModuleId": 117,
      "rightModuleId": 87,
      "pos": [
        10,
        1
      ]
    },
    {
      "id": 117,
      "plugin": "Bogaudio",
      "version": "1.1.26",
      "model": "Bogaudio-LFO",
      "params": [
        {
          "id": 0,
          "value": -0.935996234
        },
        {
          "id": 1,
          "value": 1.0
        },
        {
          "id": 2,
          "value": 0.0
        },
        {
          "id": 3,
          "value": 0.0
        },
        {
          "id": 4,
          "value": 0.0
        },
        {
          "id": 5,
          "value": 0.584500194
        }
      ],
      "rightModuleId": 116,
      "pos": [
        0,
        1
      ]
    },
    {
      "id": 127,
      "plugin": "AudibleInstruments",
      "version": "1.0.0",
      "model": "Plaits",
      "params": [
        {
          "id": 0,
          "value": 0.0
        },
        {
          "id": 1,
          "value": 0.0
        },
        {
          "id": 2,
          "value": -2.68800402
        },
        {
          "id": 3,
          "value": 0.303000033
        },
        {
          "id": 4,
          "value": 0.61600107
        },
        {
          "id": 5,
          "value": 0.612999141
        },
        {
          "id": 6,
          "value": 0.0
        },
        {
          "id": 7,
          "value": 0.0
        },
        {
          "id": 8,
          "value": 0.0
        }
      ],
      "leftModuleId": 128,
      "rightModuleId": 132,
      "data": {
        "lowCpu": false,
        "model": 6,
        "lpgColor": 0.5,
        "decay": 0.5
      },
      "pos": [
        78,
        0
      ]
    },
    {
      "id": 128,
      "plugin": "AudibleInstruments",
      "version": "1.0.0",
      "model": "Plaits",
      "params": [
        {
          "id": 0,
          "value": 0.0
        },
        {
          "id": 1,
          "value": 0.0
        },
        {
          "id": 2,
          "value": -3.11199474
        },
        {
          "id": 3,
          "value": 0.303000033
        },
        {
          "id": 4,
          "value": 0.61600107
        },
        {
          "id": 5,
          "value": 0.612999141
        },
        {
          "id": 6,
          "value": 0.0
        },
        {
          "id": 7,
          "value": 0.0
        },
        {
          "id": 8,
          "value": 0.0
        }
      ],
      "rightModuleId": 127,
      "data": {
        "lowCpu": false,
        "model": 6,
        "lpgColor": 0.5,
        "decay": 0.5
      },
      "pos": [
        66,
        0
      ]
    },
    {
      "id": 132,
      "plugin": "AudibleInstruments",
      "version": "1.0.0",
      "model": "Plaits",
      "params": [
        {
          "id": 0,
          "value": 0.0
        },
        {
          "id": 1,
          "value": 0.0
        },
        {
          "id": 2,
          "value": -0.911996603
        },
        {
          "id": 3,
          "value": 0.303000033
        },
        {
          "id": 4,
          "value": 0.61600107
        },
        {
          "id": 5,
          "value": 0.612999141
        },
        {
          "id": 6,
          "value": 0.0
        },
        {
          "id": 7,
          "value": 0.0
        },
        {
          "id": 8,
          "value": 0.0
        }
      ],
      "leftModuleId": 127,
      "rightModuleId": 133,
      "data": {
        "lowCpu": false,
        "model": 6,
        "lpgColor": 0.5,
        "decay": 0.5
      },
      "pos": [
        90,
        0
      ]
    },
    {
      "id": 133,
      "plugin": "AudibleInstruments",
      "version": "1.0.0",
      "model": "Plaits",
      "params": [
        {
          "id": 0,
          "value": 0.0
        },
        {
          "id": 1,
          "value": 0.0
        },
        {
          "id": 2,
          "value": -0.504001379
        },
        {
          "id": 3,
          "value": 0.303000033
        },
        {
          "id": 4,
          "value": 0.61600107
        },
        {
          "id": 5,
          "value": 0.612999141
        },
        {
          "id": 6,
          "value": 0.0
        },
        {
          "id": 7,
          "value": 0.0
        },
        {
          "id": 8,
          "value": 0.0
        }
      ],
      "leftModuleId": 132,
      "data": {
        "lowCpu": false,
        "model": 6,
        "lpgColor": 0.5,
        "decay": 0.5
      },
      "pos": [
        102,
        0
      ]
    },
    {
      "id": 143,
      "plugin": "Bogaudio",
      "version": "1.1.26",
      "model": "Bogaudio-Mix4",
      "params": [
        {
          "id": 0,
          "value": 0.909090936
        },
        {
          "id": 1,
          "value": 0.0
        },
        {
          "id": 2,
          "value": 0.0
        },
        {
          "id": 3,
          "value": 0.909090936
        },
        {
          "id": 4,
          "value": 0.0
        },
        {
          "id": 5,
          "value": 0.0
        },
        {
          "id": 6,
          "value": 0.909090936
        },
        {
          "id": 7,
          "value": 0.0
        },
        {
          "id": 8,
          "value": 0.0
        },
        {
          "id": 9,
          "value": 0.909090936
        },
        {
          "id": 10,
          "value": 0.0
        },
        {
          "id": 11,
          "value": 0.0
        },
        {
          "id": 12,
          "value": 0.0
        },
        {
          "id": 13,
          "value": 0.0
        }
      ],
      "leftModuleId": 109,
      "data": {
        "poly_channel_offset": -1
      },
      "pos": [
        105,
        1
      ]
    }
  ],
  "cables": [
    {
      "id": 395,
      "outputModuleId": 38,
      "outputId": 1,
      "inputModuleId": 39,
      "inputId": 5,
      "color": "#c91847"
    },
    {
      "id": 396,
      "outputModuleId": 38,
      "outputId": 2,
      "inputModuleId": 39,
      "inputId": 6,
      "color": "#0986ad"
    },
    {
      "id": 397,
      "outputModuleId": 39,
      "outputId": 1,
      "inputModuleId": 40,
      "inputId": 2,
      "color": "#c9b70e"
    },
    {
      "id": 398,
      "outputModuleId": 39,
      "outputId": 2,
      "inputModuleId": 40,
      "inputId": 3,
      "color": "#0c8e15"
    },
    {
      "id": 409,
      "outputModuleId": 48,
      "outputId": 0,
      "inputModuleId": 35,
      "inputId": 11,
      "color": "#0986ad"
    },
    {
      "id": 419,
      "outputModuleId": 48,
      "outputId": 1,
      "inputModuleId": 35,
      "inputId": 10,
      "color": "#c91847"
    },
    {
      "id": 418,
      "outputModuleId": 35,
      "outputId": 4,
      "inputModuleId": 46,
      "inputId": 2,
      "color": "#0c8e15"
    },
    {
      "id": 426,
      "outputModuleId": 55,
      "outputId": 4,
      "inputModuleId": 46,
      "inputId": 4,
      "color": "#0c8e15"
    },
    {
      "id": 422,
      "outputModuleId": 46,
      "outputId": 0,
      "inputModuleId": 39,
      "inputId": 9,
      "color": "#0c8e15"
    },
    {
      "id": 439,
      "outputModuleId": 48,
      "outputId": 2,
      "inputModuleId": 35,
      "inputId": 9,
      "color": "#c9b70e"
    },
    {
      "id": 442,
      "outputModuleId": 48,
      "outputId": 3,
      "inputModuleId": 35,
      "inputId": 8,
      "color": "#0986ad"
    },
    {
      "id": 446,
      "outputModuleId": 50,
      "outputId": 1,
      "inputModuleId": 55,
      "inputId": 0,
      "color": "#0c8e15"
    },
    {
      "id": 450,
      "outputModuleId": 35,
      "outputId": 0,
      "inputModuleId": 35,
      "inputId": 1,
      "color": "#c91847"
    },
    {
      "id": 452,
      "outputModuleId": 48,
      "outputId": 4,
      "inputModuleId": 35,
      "inputId": 7,
      "color": "#c9b70e"
    },
    {
      "id": 453,
      "outputModuleId": 47,
      "outputId": 0,
      "inputModuleId": 35,
      "inputId": 6,
      "color": "#0986ad"
    },
    {
      "id": 455,
      "outputModuleId": 47,
      "outputId": 6,
      "inputModuleId": 35,
      "inputId": 4,
      "color": "#0c8e15"
    },
    {
      "id": 454,
      "outputModuleId": 47,
      "outputId": 9,
      "inputModuleId": 35,
      "inputId": 3,
      "color": "#c9b70e"
    },
    {
      "id": 437,
      "outputModuleId": 68,
      "outputId": 0,
      "inputModuleId": 38,
      "inputId": 8,
      "color": "#c91847"
    },
    {
      "id": 438,
      "outputModuleId": 35,
      "outputId": 3,
      "inputModuleId": 68,
      "inputId": 2,
      "color": "#0986ad"
    },
    {
      "id": 451,
      "outputModuleId": 35,
      "outputId": 1,
      "inputModuleId": 69,
      "inputId": 3,
      "color": "#0986ad"
    },
    {
      "id": 443,
      "outputModuleId": 50,
      "outputId": 2,
      "inputModuleId": 69,
      "inputId": 0,
      "color": "#0c8e15"
    },
    {
      "id": 457,
      "outputModuleId": 67,
      "outputId": 0,
      "inputModuleId": 35,
      "inputId": 2,
      "color": "#0986ad"
    },
    {
      "id": 456,
      "outputModuleId": 67,
      "outputId": 2,
      "inputModuleId": 35,
      "inputId": 5,
      "color": "#c91847"
    },
    {
      "id": 421,
      "outputModuleId": 45,
      "outputId": 0,
      "inputModuleId": 39,
      "inputId": 8,
      "color": "#c9b70e"
    },
    {
      "id": 413,
      "outputModuleId": 50,
      "outputId": 0,
      "inputModuleId": 45,
      "inputId": 4,
      "color": "#0986ad"
    },
    {
      "id": 420,
      "outputModuleId": 35,
      "outputId": 5,
      "inputModuleId": 45,
      "inputId": 2,
      "color": "#0986ad"
    },
    {
      "id": 411,
      "outputModuleId": 47,
      "outputId": 14,
      "inputModuleId": 50,
      "inputId": 0,
      "color": "#0c8e15"
    },
    {
      "id": 408,
      "outputModuleId": 73,
      "outputId": 0,
      "inputModuleId": 48,
      "inputId": 0,
      "color": "#c91847"
    },
    {
      "id": 410,
      "outputModuleId": 73,
      "outputId": 4,
      "inputModuleId": 47,
      "inputId": 0,
      "color": "#c9b70e"
    },
    {
      "id": 458,
      "outputModuleId": 73,
      "outputId": 6,
      "inputModuleId": 35,
      "inputId": 0,
      "color": "#c91847"
    },
    {
      "id": 464,
      "outputModuleId": 73,
      "outputId": 1,
      "inputModuleId": 47,
      "inputId": 1,
      "color": "#c91847"
    },
    {
      "id": 483,
      "outputModuleId": 69,
      "outputId": 0,
      "inputModuleId": 43,
      "inputId": 0,
      "color": "#0986ad"
    },
    {
      "id": 493,
      "outputModuleId": 82,
      "outputId": 2,
      "inputModuleId": 83,
      "inputId": 1,
      "color": "#c91847"
    },
    {
      "id": 499,
      "outputModuleId": 83,
      "outputId": 0,
      "inputModuleId": 68,
      "inputId": 3,
      "color": "#c9b70e"
    },
    {
      "id": 497,
      "outputModuleId": 47,
      "outputId": 12,
      "inputModuleId": 84,
      "inputId": 2,
      "color": "#c91847"
    },
    {
      "id": 500,
      "outputModuleId": 84,
      "outputId": 0,
      "inputModuleId": 82,
      "inputId": 0,
      "color": "#0c8e15"
    },
    {
      "id": 477,
      "outputModuleId": 79,
      "outputId": 2,
      "inputModuleId": 81,
      "inputId": 0,
      "color": "#0986ad"
    },
    {
      "id": 478,
      "outputModuleId": 79,
      "outputId": 3,
      "inputModuleId": 81,
      "inputId": 1,
      "color": "#c9b70e"
    },
    {
      "id": 505,
      "outputModuleId": 40,
      "outputId": 2,
      "inputModuleId": 79,
      "inputId": 9,
      "color": "#0c8e15"
    },
    {
      "id": 506,
      "outputModuleId": 40,
      "outputId": 3,
      "inputModuleId": 79,
      "inputId": 10,
      "color": "#c91847"
    },
    {
      "id": 529,
      "outputModuleId": 98,
      "outputId": 1,
      "inputModuleId": 60,
      "inputId": 1,
      "color": "#c91847"
    },
    {
      "id": 530,
      "outputModuleId": 98,
      "outputId": 0,
      "inputModuleId": 60,
      "inputId": 0,
      "color": "#0986ad"
    },
    {
      "id": 531,
      "outputModuleId": 81,
      "outputId": 0,
      "inputModuleId": 98,
      "inputId": 2,
      "color": "#c9b70e"
    },
    {
      "id": 532,
      "outputModuleId": 81,
      "outputId": 1,
      "inputModuleId": 98,
      "inputId": 5,
      "color": "#0c8e15"
    },
    {
      "id": 536,
      "outputModuleId": 89,
      "outputId": 3,
      "inputModuleId": 104,
      "inputId": 2,
      "color": "#c91847"
    },
    {
      "id": 537,
      "outputModuleId": 103,
      "outputId": 3,
      "inputModuleId": 104,
      "inputId": 5,
      "color": "#0986ad"
    },
    {
      "id": 538,
      "outputModuleId": 91,
      "outputId": 3,
      "inputModuleId": 104,
      "inputId": 8,
      "color": "#c9b70e"
    },
    {
      "id": 539,
      "outputModuleId": 102,
      "outputId": 3,
      "inputModuleId": 104,
      "inputId": 11,
      "color": "#0c8e15"
    },
    {
      "id": 540,
      "outputModuleId": 101,
      "outputId": 2,
      "inputModuleId": 104,
      "inputId": 14,
      "color": "#c91847"
    },
    {
      "id": 541,
      "outputModuleId": 90,
      "outputId": 2,
      "inputModuleId": 104,
      "inputId": 17,
      "color": "#0986ad"
    },
    {
      "id": 542,
      "outputModuleId": 87,
      "outputId": 2,
      "inputModuleId": 104,
      "inputId": 20,
      "color": "#c9b70e"
    },
    {
      "id": 543,
      "outputModuleId": 100,
      "outputId": 2,
      "inputModuleId": 104,
      "inputId": 23,
      "color": "#0c8e15"
    },
    {
      "id": 551,
      "outputModuleId": 105,
      "outputId": 0,
      "inputModuleId": 109,
      "inputId": 9,
      "color": "#0986ad"
    },
    {
      "id": 561,
      "outputModuleId": 105,
      "outputId": 0,
      "inputModuleId": 109,
      "inputId": 10,
      "color": "#0c8e15"
    },
    {
      "id": 562,
      "outputModuleId": 109,
      "outputId": 2,
      "inputModuleId": 98,
      "inputId": 8,
      "color": "#c91847"
    },
    {
      "id": 563,
      "outputModuleId": 109,
      "outputId": 3,
      "inputModuleId": 98,
      "inputId": 11,
      "color": "#0986ad"
    },
    {
      "id": 544,
      "outputModuleId": 104,
      "outputId": 0,
      "inputModuleId": 105,
      "inputId": 3,
      "color": "#c91847"
    },
    {
      "id": 590,
      "outputModuleId": 116,
      "outputId": 0,
      "inputModuleId": 100,
      "inputId": 0,
      "color": "#0986ad"
    },
    {
      "id": 591,
      "outputModuleId": 116,
      "outputId": 0,
      "inputModuleId": 102,
      "inputId": 0,
      "color": "#c9b70e"
    },
    {
      "id": 592,
      "outputModuleId": 116,
      "outputId": 0,
      "inputModuleId": 103,
      "inputId": 0,
      "color": "#0c8e15"
    },
    {
      "id": 593,
      "outputModuleId": 116,
      "outputId": 0,
      "inputModuleId": 87,
      "inputId": 0,
      "color": "#c91847"
    },
    {
      "id": 594,
      "outputModuleId": 116,
      "outputId": 0,
      "inputModuleId": 90,
      "inputId": 0,
      "color": "#0986ad"
    },
    {
      "id": 595,
      "outputModuleId": 116,
      "outputId": 0,
      "inputModuleId": 91,
      "inputId": 0,
      "color": "#c9b70e"
    },
    {
      "id": 596,
      "outputModuleId": 116,
      "outputId": 0,
      "inputModuleId": 89,
      "inputId": 0,
      "color": "#0c8e15"
    },
    {
      "id": 638,
      "outputModuleId": 117,
      "outputId": 4,
      "inputModuleId": 116,
      "inputId": 0,
      "color": "#0986ad"
    },
    {
      "id": 641,
      "outputModuleId": 117,
      "outputId": 4,
      "inputModuleId": 105,
      "inputId": 0,
      "color": "#c9b70e"
    },
    {
      "id": 607,
      "outputModuleId": 128,
      "outputId": 0,
      "inputModuleId": 143,
      "inputId": 2,
      "color": "#0c8e15"
    },
    {
      "id": 609,
      "outputModuleId": 127,
      "outputId": 0,
      "inputModuleId": 143,
      "inputId": 5,
      "color": "#0986ad"
    },
    {
      "id": 612,
      "outputModuleId": 132,
      "outputId": 0,
      "inputModuleId": 143,
      "inputId": 8,
      "color": "#c9b70e"
    },
    {
      "id": 613,
      "outputModuleId": 133,
      "outputId": 0,
      "inputModuleId": 143,
      "inputId": 11,
      "color": "#0c8e15"
    },
    {
      "id": 650,
      "outputModuleId": 143,
      "outputId": 1,
      "inputModuleId": 98,
      "inputId": 14,
      "color": "#0c8e15"
    },
    {
      "id": 651,
      "outputModuleId": 143,
      "outputId": 0,
      "inputModuleId": 98,
      "inputId": 17,
      "color": "#c91847"
    },
    {
      "id": 652,
      "outputModuleId": 117,
      "outputId": 4,
      "inputModuleId": 116,
      "inputId": 1,
      "color": "#0986ad"
    },
    {
      "id": 653,
      "outputModuleId": 116,
      "outputId": 1,
      "inputModuleId": 128,
      "inputId": 7,
      "color": "#c9b70e"
    },
    {
      "id": 654,
      "outputModuleId": 116,
      "outputId": 1,
      "inputModuleId": 127,
      "inputId": 7,
      "color": "#0c8e15"
    },
    {
      "id": 655,
      "outputModuleId": 116,
      "outputId": 1,
      "inputModuleId": 132,
      "inputId": 7,
      "color": "#c91847"
    },
    {
      "id": 656,
      "outputModuleId": 116,
      "outputId": 1,
      "inputModuleId": 133,
      "inputId": 7,
      "color": "#0986ad"
    },
    {
      "id": 657,
      "outputModuleId": 98,
      "outputId": 0,
      "inputModuleId": 22,
      "inputId": 2,
      "color": "#c9b70e"
    },
    {
      "id": 658,
      "outputModuleId": 98,
      "outputId": 1,
      "inputModuleId": 22,
      "inputId": 3,
      "color": "#0c8e15"
    }
  ]
}